
<svg width="1117" height="493" viewBox="0 0 1117 493" fill="none" xmlns="http://www.w3.org/2000/svg">
<path d="M1111.68 492.826L1116.55 419.893C1116.55 419.893 1111.51 362.04 1093.89 351.973C1076.29 341.92 1071.27 286.586 1071.27 286.586V218.666C1071.27 218.666 1054.92 193.52 1036.05 185.973C1017.19 178.426 998.32 191 998.32 191C998.32 191 968.133 150.759 948.013 150.759C927.893 150.759 912.8 196.04 912.8 196.04C912.8 196.04 902.747 173.4 892.68 175.906C882.627 178.426 870.04 203.573 870.04 203.573L865.013 183.453L844.893 150.759L822.253 148.24C822.253 148.24 817.227 165.853 804.653 158.306L792.08 170.879L807.16 208.613C807.16 208.613 792.08 203.573 789.56 221.186C787.04 238.786 761.893 281.546 761.893 281.546C761.893 281.546 764.413 271.493 716.613 286.586C668.827 301.666 643.68 460.133 643.68 460.133L634.333 492.826H1111.68Z" fill="#2E2E2E"/>
<path d="M0 492.826H760.48L738.787 313.146L719.92 275.426C693.507 279.186 685.96 245.24 685.96 245.24L595.88 213.64L591.64 158.466L561.453 128.28C561.453 128.28 561.454 41.5062 546.36 30.1862C531.28 18.8662 486 22.6395 486 22.6395L452.04 56.5996L444.494 22.6395C444.494 22.6395 395.454 3.77285 372.814 7.54619C350.174 11.3195 329.427 86.1462 329.427 86.1462C329.427 86.1462 331.307 75.4529 331.307 60.3729C331.307 45.2795 289.814 15.0929 289.814 15.0929L263.4 30.1862L255.853 7.54619L214.36 -0.000426354L206.814 18.8662C206.814 18.8662 194.853 32.0662 179.773 43.3862C164.68 54.7062 164.84 117.426 164.84 117.426L138.893 158.466L105.414 204.68L70.9867 313.146L44.5734 360.306L52.1201 456.52L0 492.826Z" fill="#2E2E2E"/>
<path d="M427.36 77.8139L417.307 140.694L424.84 180.947L442.453 155.787L439.947 115.547L455.027 70.2673L444.493 22.9873L427.36 77.8139Z" fill="#1F1F1F"/>
<path d="M314.174 128.121L231.174 108.001L223.627 155.787L314.174 163.334V128.121Z" fill="#1F1F1F"/>
<path d="M592.106 157.053C592.106 157.053 631.093 125.6 663.8 128.12C696.493 130.64 744.28 135.666 744.28 135.666C744.28 135.666 764.413 165.853 771.947 168.373C779.493 170.88 789.56 236.279 789.56 236.279L809.68 243.826L854.96 228.733L892.68 180.946C892.68 180.946 827.28 105.48 809.68 97.9329C792.08 90.3862 756.853 95.4262 756.853 95.4262L701.52 75.3062L600.92 62.7195C600.92 62.7195 570.733 47.6395 548.093 47.6395C525.453 47.6395 512.88 102.973 512.88 102.973L592.106 157.053Z" fill="#2E2E2E"/>
<path d="M626.066 349.467L532.053 389.707L507.853 442.52L467.613 452.587L487.733 364.547L485.213 281.547L520.427 354.494L626.066 349.467Z" fill="#1F1F1F"/>
<path d="M276.453 233.76L304.12 201.066L344.36 211.12L367 196.04L334.293 153.266L377.066 155.786L389.64 108L369.507 82.8398L359.453 45.1198L349.386 100.453L346.88 118.066C336.813 108 331.786 58.9464 331.786 58.9464L324.24 105.48L314.173 128.12V163.333L276.453 233.76Z" fill="#171717"/>
<path d="M208.533 211.12L233.693 168.373L285.253 160.813L236.213 145.733V123.093L290.28 123.72C290.28 123.72 261.36 108 261.36 77.8134C261.36 47.6401 263.867 28.7734 263.867 28.7734L218.6 90.3868L221.107 128.12C221.107 128.12 221.107 163.333 211.053 170.88C200.987 178.427 208.533 211.12 208.533 211.12Z" fill="#171717"/>
<path d="M43.1602 357.24C43.1602 357.24 41.7469 346.4 57.6269 329.346C72.8802 312.946 80.2668 284.066 82.7735 256.4C85.2935 228.733 97.8668 206.093 110.44 185.973C123.013 165.853 140.627 158.306 138.107 145.733C135.6 133.146 162 115.546 162 115.546C162 115.546 145.653 71.533 163.267 50.1464C180.867 28.773 207.28 17.4531 207.28 17.4531C207.28 17.4531 200.987 35.0531 208.533 45.1197C216.08 55.1864 213.56 75.3064 198.48 80.3331C183.387 85.3598 185.907 105.48 193.453 113.026C200.987 120.573 208.533 130.64 208.533 130.64L180.867 120.573L200.987 153.266C200.987 153.266 198.48 178.426 185.907 180.946C173.32 183.453 158.24 183.453 158.24 183.453L173.32 213.64L158.24 248.853L170.814 279.04L125.533 268.973L120.507 311.733L90.3201 314.253L107.933 339.4L143.147 346.946L121.614 347.933C109.214 348.493 102.347 353.946 104.707 363.373L43.1602 357.24Z" fill="#171717"/>
<path d="M241.013 492.826H391.28L427.36 460.133L472.64 442.52L471.386 292.866L377.066 331.853L314.173 326.826L266.386 353.24L243.747 394.733L253.813 424.92L238.72 455.106L241.013 492.826Z" fill="#1F1F1F"/>
<path d="M43.1602 357.24L47.5602 417.373L120.507 402.6L104.467 362.666C104.467 362.666 59.2002 356.533 43.1602 357.24Z" fill="#171717"/>
<path d="M422.333 409.827C422.333 409.827 361.974 402.28 326.76 377.134C291.534 351.974 286.507 346.947 286.507 346.947L301.6 394.734L289.027 427.427C289.027 427.427 316.693 434.974 339.333 450.08C361.973 465.16 367 482.774 379.573 457.614C392.147 432.467 422.333 409.827 422.333 409.827Z" fill="#171717"/>
<path d="M502.826 30.0267L486 22.64L471.146 37.7334L502.826 30.0267Z" fill="#171717"/>
<path d="M685.173 245.707C685.173 245.707 637.067 251.053 616 251.373C594.52 251.693 538.04 236.28 538.04 236.28L613.493 261.427L685.173 245.707Z" fill="#171717"/>
<path d="M558.16 281.547V341.92L565.707 301.667L558.16 281.547Z" fill="#171717"/>
<path d="M377.067 331.854L450 387.188L379.573 309.227L314.173 326.827L377.067 331.854Z" fill="#171717"/>
<path d="M776.973 329.347L726.68 286.587L769.44 253.88C769.44 253.88 774.467 291.614 789.56 301.667C804.653 311.734 832.32 324.307 832.32 324.307C832.32 324.307 787.04 334.374 776.973 329.347Z" fill="#171717"/>
<path d="M875.507 492.826H1002.69L990.773 447.56L935.44 417.373L912.8 437.493L865.014 377.133L858.093 438.12L880.733 470.2L875.507 492.826Z" fill="#1F1F1F"/>
<path d="M804.653 256.4L809.68 294.12L807.16 326.826L832.32 324.306L819.733 304.186L804.653 256.4Z" fill="#171717"/>
<path d="M907.773 209.866L885.133 224.96L887.654 247.6L917.84 252.626L925.387 290.36L937.96 330.6V277.773L927.893 232.506C942.987 219.933 922.867 212.386 922.867 212.386L945.507 199.8L912.8 194.773L907.773 209.866Z" fill="#171717"/>
<path d="M814.707 382.161L759.373 372.107L741.773 387.188L814.707 382.161Z" fill="#171717"/>
<path d="M865.014 354.493C872.56 357.013 948.014 364.547 948.014 364.547L970.654 374.613L1018.44 362.04L953.054 344.427L927.893 351.973L865.014 354.493Z" fill="#171717"/>
<path d="M595.88 213.64L592.107 157.053L651.226 130.64L744.28 135.666L771.947 168.373L789.56 236.279L769.44 253.879L771.947 276.52L847.413 228.733L885.133 206.093C885.133 206.093 854.96 158.306 844.893 150.759C834.826 143.213 779.493 135.666 761.893 130.64C744.28 125.6 714.106 105.479 668.826 105.479C623.546 105.479 561.933 126.866 561.933 126.866L548.093 198.546L595.88 213.64Z" fill="#1F1F1F"/>
<path d="M379.573 206.094C379.573 206.094 389.64 241.307 404.72 243.827C419.813 246.334 414.786 211.12 414.786 211.12L439.947 231.24L460.066 233.76C460.066 233.76 467.613 268.974 467.613 284.067C467.613 299.16 462.573 344.427 462.573 344.427L467.613 394.734V452.587L497.786 369.587L487.733 296.64L485.213 216.16C485.213 216.16 455.026 206.094 450 196.04C444.973 185.974 424.84 180.947 424.84 180.947L422.333 153.267L427.36 77.8136L389.64 108L377.066 155.787L399.693 175.907C399.693 175.907 394.667 206.094 379.573 206.094Z" fill="#171717"/>
<path d="M707.493 459.188L678.893 419.894L666.307 389.707L641.16 372.107L704.04 299.161L677 362.667L721.653 397.254L707.493 459.188Z" fill="#171717"/>
<path d="M837.347 296.641V221.187H812.2L819.734 170.881L824.774 201.067L842.374 208.614L852.44 193.521L857.467 208.614L885.134 206.094L847.414 228.734L837.347 296.641Z" fill="#171717"/>
<path d="M1002.69 492.826H1052.36L1010.89 412.346L935.44 417.373L990.773 447.56L1002.69 492.826Z" fill="#171717"/>
<path d="M907.774 450.08L940.467 472.706L941.733 491.573L956.4 492.826H983.227L955.56 465.16L912.8 437.493L865.014 377.133L877.587 414.853L907.774 450.08Z" fill="#171717"/>
<path d="M834.827 475.226L756.854 455.106L736.733 407.32L731.707 457.613L713.467 492.52L837.347 492.826L834.827 475.226Z" fill="#171717"/>
<path d="M804.24 492.826L716.026 474L699.04 439.746L667.24 389.56L576.373 406.2L558.16 439.826L512.76 492.826H804.24Z" fill="#1F1F1F"/>
<path d="M396.12 492.826C405.44 483.56 421.24 470.8 439.947 467.68C470.12 462.653 507.853 442.52 507.853 442.52L543.066 389.706L626.066 349.466L558.16 369.586L525.453 384.68L505.333 424.92L472.64 442.52C472.64 442.52 432.4 445.04 414.786 462.653C404.626 472.813 396.986 484.64 392.333 492.826H396.12Z" fill="#171717"/>
<path d="M231.174 468.933C234.76 476.12 238.347 487.106 240.107 492.826H273.774L251.294 476.48V448.813L268.907 438.76L276.453 421.146L261.36 388.453L278.96 380.906L266.387 353.24C256.333 360.786 228.667 370.84 231.174 390.96C233.694 411.093 248.787 423.666 241.24 433.72C233.694 443.786 226.147 458.88 231.174 468.933Z" fill="#171717"/>
<path d="M220.04 492.826L206.027 476.48L180.867 429.946L211.053 375.866L213.56 344.426L85.2935 412.346L0 492.826H220.04Z" fill="#1F1F1F"/>
<path d="M52.5999 455.107C52.5999 455.107 65.1734 434.974 77.7468 434.974C90.3201 434.974 102.893 455.107 102.893 455.107L143.147 434.974L148.173 414.854L173.32 392.227L213.56 344.427L223.627 309.227L256.333 274.001L218.6 296.641L198.48 341.921L158.24 374.614L82.7733 399.774L47.5601 417.374L52.5999 455.107Z" fill="#171717"/>
<path d="M159.28 492.826H220.04L206.027 476.48C206.027 476.48 206.027 443.786 198.48 428.693C190.934 413.6 211.053 375.866 211.053 375.866L168.294 428.693L183.387 463.906L159.28 492.826Z" fill="#171717"/>
<path d="M444.493 22.6409L460.067 40.0942L455.027 82.8409L444.973 102.974L450 138.188L442.453 155.788L492.76 145.734L500.307 118.068L504.427 113.108L538.04 72.7876L548.093 47.6409L538.04 92.9076L512.88 120.574L507.853 150.761L495.28 173.401L525.453 183.454L565.707 203.574L517.907 193.521L492.76 198.548L470.12 175.908L433.173 169.081L434.907 130.641L450.627 58.3209L444.493 22.6409Z" fill="#171717"/>
<path d="M998.32 191C998.32 191 1008.39 179.054 1036.05 185.974C1063.72 192.894 1071.27 218.667 1071.27 218.667L1039.2 223.08V275.894L1020.33 217.414L1001.47 209.867L993.92 236.28L1001.47 258.92L976.947 226.84L998.32 191Z" fill="#1F1F1F"/>
<path d="M1093.89 351.973C1093.89 351.973 1118.43 360.146 1116.55 419.893C1114.65 479.626 1111.68 492.826 1111.68 492.826H1076.92L1090.13 453.213L1067.49 398.506L1018.44 385.306L1069.37 387.186L1093.89 421.146V383.413L1058.07 351.346V309.84L1075.04 347.573L1093.89 351.973Z" fill="#1F1F1F"/>
<path d="M613.493 261.427L685.173 245.707L631.72 274L629.84 317.387L613.493 261.427Z" fill="#1F1F1F"/>
<path d="M561.933 126.867L650.587 106.107L560.04 108.001L561.933 126.867Z" fill="#1F1F1F"/>
<path d="M450 387.188L379.573 309.227L399.693 298.534L450 387.188Z" fill="#1F1F1F"/>
<path d="M304.12 201.067L344.36 211.12L299.72 223.08L304.12 201.067Z" fill="#1F1F1F"/>
<path d="M444.493 22.64L427.36 77.8133L389.64 108L369.507 82.84L359.453 45.12L378.947 74.04L409.133 60.84L444.493 22.64Z" fill="#1F1F1F"/>
<path d="M704.04 299.161L677 362.667L721.654 397.254L692.093 355.121L704.04 299.161Z" fill="#1F1F1F"/>
<path d="M667.24 389.56L576.374 406.2L573.24 389.08L667.24 389.56Z" fill="#1F1F1F"/>
<path d="M865.014 377.134L912.8 437.494L935.44 417.374L865.014 377.134Z" fill="#1F1F1F"/>
<path d="M741.774 387.187L814.707 382.161L761.893 407.321L756.854 455.107L736.733 407.321L741.774 387.187Z" fill="#1F1F1F"/>
</svg>
