
<svg width="3381" height="1227" viewBox="0 0 3381 1227" fill="none" xmlns="http://www.w3.org/2000/svg">
<path d="M1061.76 495.667C1055.04 494.2 1043.94 486.32 1039.85 484.12C1035.76 481.933 1030.64 479.013 1026.99 477.693C1023.34 476.387 1018.81 475.067 1025.09 472.36C1031.37 469.667 1049.63 468.2 1049.63 468.2C1049.63 468.2 1057.23 476.533 1062.93 476.533C1062.93 476.533 1052.16 480.76 1041.31 478.867C1072.42 493.627 1081.33 482.64 1081.33 482.64L1082.36 494.2C1077.39 498.44 1068.48 497.133 1061.76 495.667ZM1017.49 594.133V576.16C1017.49 576.16 1040.72 581.707 1063.07 578.053C1043.5 589.747 1017.49 594.133 1017.49 594.133ZM1015.4 623.933L1023 610.107L1034.88 609.32L1015.4 623.933ZM1040.92 512.32C1035.46 516.6 1038.77 520.693 1038.77 520.693C1038.77 520.693 1023.58 518.747 1008.78 507.84C1025.73 504.147 1040.92 512.32 1040.92 512.32ZM925.021 567.547C925.021 567.547 913.627 554.973 905.739 554.253C920.64 548.84 932.619 540.96 932.619 540.96L925.021 567.547ZM894.928 443.947C884.409 448.333 857.821 450.373 851.395 448.627C844.967 446.88 815.457 423.213 813.12 421.747C813.12 421.747 822.761 420.973 827.047 422.92C831.332 424.867 830.747 424.867 839.123 426.027C847.499 427.2 852.953 422.72 857.821 425.053C862.692 427.4 872.82 427.587 876.716 425.64C880.612 423.693 889.765 428.373 895.22 424.48C900.675 420.573 911.583 421.747 911.583 421.747C911.583 421.747 905.447 439.573 894.928 443.947ZM851.395 470.253C844.967 468.933 843.36 467.76 839.415 471.413C835.471 475.067 847.304 489.24 847.304 489.24C847.304 489.24 833.133 482.227 828.02 479.893C822.907 477.547 817.36 483.987 814.727 481.347C809.176 475.8 807.129 471.853 807.568 470.4C808.007 468.933 814.727 465.867 824.076 466.16C833.425 466.453 836.055 464.253 840.291 464.253C844.528 464.253 852.271 466.16 855.777 466.013C859.283 465.867 862.351 465.427 862.351 465.427L864.541 469.813C864.541 469.813 857.821 471.56 851.395 470.253ZM763.012 318.027C762.428 309.12 763.012 305.76 763.012 305.76C769.001 315.253 779.228 321.973 779.228 321.973C779.228 321.973 765.057 319.48 763.012 318.027ZM735.109 412.027L722.327 398.813C722.327 398.813 724.664 395.893 727.22 394.653C729.777 393.4 732.48 394.653 734.452 396.48C736.424 398.307 735.181 411.307 735.109 412.027ZM687.192 310.133C683.979 312.667 671.317 318.8 671.317 318.8C671.317 318.8 676.381 308.187 673.168 304.093C673.168 304.093 683.491 302.147 696.347 299.52C689.043 302.253 690.407 307.6 687.192 310.133ZM636.208 296.693C638.107 296.107 643.513 297.133 647.749 293.333C651.985 289.533 656.513 283.253 656.66 280.773C656.807 278.293 659.728 276.24 662.941 276.827C666.156 277.413 678.135 280.187 683.54 278.293C673.607 275.373 671.123 270.693 671.123 270.693L695.812 273.027C681.933 284.72 648.772 301.667 644.243 301.52C639.713 301.373 634.309 297.28 636.208 296.693ZM497.28 355.52C499.812 357.853 487.735 370.133 465.531 378.507C481.503 367.987 489.488 350.653 484.619 347.92C479.749 345.2 475.464 351.333 470.4 350.307C465.335 349.293 464.167 348.12 460.855 348.32C457.544 348.507 455.401 344.027 451.116 344.413C446.831 344.813 443.909 344.027 443.909 344.027C443.909 344.027 458.323 335.067 462.024 335.653C465.725 336.24 466.309 341.493 477.412 342.467C488.513 343.44 494.163 345.587 502.344 345.387C494.747 347.92 494.747 353.187 497.28 355.52ZM479.983 313.893C488.559 316.84 502.317 313.333 507.713 311.733C504.587 312.747 499.047 314.693 496.403 316.413C492.604 318.907 484.863 321.68 476.827 320.467C477.919 319.187 479.084 316.653 479.983 313.893ZM373.105 394.72C374.42 397.787 358.789 424.52 358.789 424.52C358.789 424.52 363.317 397.787 359.665 394.427C356.013 391.067 341.697 388.88 341.697 388.88C353.676 385.96 361.711 368.72 361.711 368.72C361.711 368.72 367.7 373.24 371.06 373.24C366.093 377.92 370.184 383.187 373.836 384.933C370.329 387.853 371.791 391.653 373.105 394.72ZM340.091 350.307L355.429 353.373C355.429 353.373 338.628 355.28 327.964 358.787C334.539 355.72 340.091 350.307 340.091 350.307ZM266.851 382.4C266.851 382.4 267.951 378.667 268.761 376.093C272.356 376.56 274.837 376.747 274.837 376.747L266.851 382.4ZM253.899 450.96C243.964 447.307 236.807 440.013 236.807 440.013C248.347 443.08 259.596 437.08 263.248 433.44C263.248 439.28 253.607 442.493 253.899 450.96ZM220.591 423.36C220.591 423.36 228.772 418.387 235.929 412.693C244.695 415.467 255.36 412.693 255.36 412.693C255.36 412.693 236.513 424.373 220.591 423.36ZM1205.12 628.707C1205.12 628.707 1193.04 629.187 1184.57 629.973C1176.1 630.747 1170.74 628.12 1162.94 626.36C1155.16 624.613 1152.33 621.307 1146.2 617.6C1140.06 613.907 1139.67 610.68 1140.94 608.84C1142.21 606.987 1148.83 604.933 1152.92 602.213C1157.01 599.48 1159.25 598.413 1169.77 599.973C1180.29 601.533 1192.46 594.52 1192.46 594.52C1192.46 594.52 1179.12 595.787 1170.65 592.28C1178.53 593.16 1179.8 589.36 1187.01 587.12C1194.21 584.88 1198.01 576.107 1198.01 576.107C1198.01 576.107 1176.78 577.773 1167.53 575.533C1158.28 573.293 1153.01 571.24 1136.17 559.56C1168.8 564.52 1182.72 550.013 1182.72 550.013C1182.72 550.013 1172.98 554.293 1155.65 550.013C1163.82 547.773 1172.98 541.533 1172.98 541.533C1172.98 541.533 1156.72 541.24 1146.49 539.2C1136.26 537.16 1116.98 528 1114.25 524.987C1111.53 521.96 1106.85 511.147 1102.08 500.733C1127.01 518.947 1145.32 506.573 1145.32 506.573C1145.32 506.573 1133.05 506.373 1127.21 501.8C1135.68 503.267 1135.97 492.933 1139.57 491.573C1143.18 490.213 1143.47 487.973 1140.26 485.533C1137.04 483.107 1134.71 485.933 1132.76 486.8C1130.81 487.68 1129.84 488.56 1125.94 481.453C1122.04 474.333 1113.96 469.853 1109.19 466.747C1104.42 463.627 1102.08 455.253 1097.79 449.507C1093.51 443.76 1090.49 444.64 1089.71 444.44C1088.93 444.24 1088.54 443.173 1089.42 440.84C1098.18 442.973 1104.61 435.573 1109.87 430.507C1115.13 425.453 1114.93 414.147 1114.93 414.147C1114.93 414.147 1108.9 422.92 1104.03 422.92C1103.25 405 1094.48 397.013 1091.17 391.56C1087.86 386.107 1090.59 367.787 1089.61 358.053C1088.64 348.32 1082.8 343.84 1082.8 334.88C1082.8 325.92 1084.16 317.347 1078.51 316.96C1072.86 316.56 1075.01 345.787 1074.23 362.147C1066.82 367.013 1070.33 398.173 1069.55 406.56C1068.77 414.933 1056.5 427.2 1056.5 427.2L1068.77 422.133C1067.6 429.933 1072.28 440.44 1072.28 440.44C1072.28 440.44 1065.65 445.507 1064.49 451.747C1059.81 449.8 1026.89 442.787 1010.73 441.027C994.56 439.28 989.3 430.32 989.3 430.32C989.3 430.32 1030.98 439.08 1047.35 431.093C1047.35 431.093 1022.61 425.453 1023 424.867C1023.39 424.28 1030.4 420.973 1036.05 420.573C1041.7 420.187 1047.93 422.92 1051.24 419.213C1054.55 415.52 1065.46 403.44 1059.81 399.147C1054.16 394.867 1047.35 404.213 1040.72 401.68C1034.1 399.147 1033.52 397.4 1014.04 391.36C1039.16 393.12 1045.98 378.12 1041.5 374.413C1037.02 370.72 1030.4 376.56 1023 375C1015.6 373.44 1008.58 376.56 992.027 371.693C975.471 366.813 963.005 349.293 963.005 349.293C963.005 349.293 987.157 353.773 992.223 353.773C997.287 353.773 996.897 350.84 1010.92 349.293C1024.95 347.733 1047.15 325.48 1047.15 325.48C1047.15 325.48 1037.8 331.027 1016.91 330.587C1030.93 320.8 1038.24 308.387 1041.45 304C1044.67 299.613 1047.88 291.88 1047.88 291.88C1047.88 291.88 1019.54 310.427 1011.51 312.333C1003.47 314.227 978.052 309.693 970.601 309.693C963.151 309.693 955.555 307.8 945.036 299.32C964.465 298.013 968.703 294.067 968.703 291.293C968.703 288.52 964.465 284.867 964.465 284.867C964.465 284.867 980.243 281.213 994.56 272.587C1008.88 263.973 1013.11 245.427 1013.11 245.427C1013.11 245.427 1007.85 253.307 1003.18 256.227C998.504 259.147 984.041 262.653 978.489 263.093C972.939 263.533 969.286 263.24 963.443 258.427C957.599 253.6 949.272 253.013 946.205 252.147C943.137 251.267 938.755 244.987 943.283 242.787C947.812 240.6 948.396 247.76 964.612 243.52C980.827 239.28 985.503 223.36 993.683 209.627C991.637 211.387 984.772 217.96 979.367 219.413C973.961 220.88 957.308 221.76 957.308 221.76C957.308 221.76 953.655 217.08 947.812 215.907C954.239 214.16 962.275 205.68 968.995 195.893C961.105 201.747 946.789 207.293 932.625 205.093C932.341 198.96 928.967 198.96 927.944 197.947C926.921 196.92 927.652 190.2 931.451 181.293C935.248 172.373 928.528 166.387 929.697 160.107C930.865 153.827 929.55 143.453 928.381 137.173C927.213 130.893 919.617 129.573 918.74 124.173C917.864 118.76 919.909 112.04 915.964 111.6C912.02 111.16 910.56 125.333 912.313 130.6C914.065 135.853 914.211 150.76 911.583 159.52C908.953 168.28 909.537 174.867 912.167 180.413C914.796 185.96 913.189 192.827 913.189 195.747C913.189 198.667 910.121 202.173 906.761 203.787C903.401 205.387 891.568 209.48 892.883 217.373C894.197 225.253 898.433 224.827 915.964 230.813C914.651 234.467 907.929 237.093 896.243 240.16C884.556 243.227 876.229 251.853 876.229 251.853C876.229 251.853 866.733 248.773 866.149 255.36C865.565 261.933 872.139 263.093 882.656 263.093C893.176 263.093 899.164 263.973 899.164 263.973C899.164 263.973 897.12 267.773 890.692 271.867C884.264 275.947 880.319 276.68 875.645 277.56C870.969 278.44 867.172 288.227 875.207 291.147C883.241 294.067 888.792 288.667 900.041 290.12C911.291 291.587 911.291 284.72 912.604 285.747C913.92 286.76 914.796 294.8 910.121 300.787C905.447 306.773 890.692 316.12 886.601 316.56C882.511 317 868.485 327.667 854.461 340.52C873.161 343.733 877.983 334.24 885.871 337.013C893.76 339.787 908.513 333.8 908.513 333.8C908.513 333.8 881.927 347.533 882.803 353.52C883.68 359.52 910.121 356.88 910.121 356.88C910.121 356.88 894.928 370.907 884.264 377.92C873.599 384.933 860.889 385.227 860.889 385.227C860.889 385.227 875.207 375.147 877.836 373.093C880.465 371.053 880.757 365.067 876.375 363.453C871.992 361.853 854.316 362.293 844.967 360.24C835.617 358.2 824.076 350.893 824.076 350.893C824.076 350.893 832.111 346.213 832.549 344.027C832.987 341.84 832.695 331.467 828.604 329.427C824.513 327.373 821.739 331.027 815.749 330.587C809.76 330.147 795.443 323.72 780.249 310.573C786.532 313.933 817.648 317.587 827.728 314.813C837.808 312.04 845.551 312.333 857.531 305.907C850.08 308.387 834.74 308.68 824.368 302.253C840.876 295.093 840.876 286.76 838.977 283.84C837.077 280.92 833.133 282.24 828.751 282.373C824.368 282.52 821.3 283.987 812.096 280.773C802.893 277.56 792.668 275.52 792.668 275.52C792.668 275.52 814.58 270.4 821.739 265.44C828.897 260.467 835.763 254.627 833.133 246.88C833.133 246.88 845.404 244.547 851.979 239.133C844.091 240.013 808.736 240.6 792.375 239.133C776.013 237.68 768.417 237.973 764.18 234.32C759.944 230.667 753.077 227.307 753.077 227.307C753.077 227.307 751.909 220 754.393 218.973C756.876 217.96 766.956 222.04 779.228 222.48C791.499 222.92 806.692 218.533 806.692 218.533C806.692 218.533 794.859 217.667 788.723 215.467C782.588 213.28 776.597 206.56 776.597 206.56C776.597 206.56 783.317 209.333 789.453 210.213C795.589 211.093 800.995 206.853 809.76 201.88C818.524 196.92 819.693 189.907 815.749 182.893C819.985 179.68 824.368 168.427 824.368 168.427C824.368 168.427 814.143 179.24 806.4 180.853C798.656 182.453 792.813 183.48 786.857 181.587C780.901 179.68 776.013 180.853 770.171 180.707C764.327 180.56 757.315 176.613 747.964 165.507C751.909 169.453 762.135 168 767.54 165.213C772.945 162.44 784.632 153.093 786.385 149.147C788.139 145.2 784.632 141.693 782.035 140.827C779.436 139.947 778.497 142.133 773.237 144.627C767.979 147.107 764.327 147.547 763.741 146.08C763.157 144.627 766.08 142.867 770.608 141.693C775.137 140.533 778.935 135.413 781.272 128.547C783.609 121.68 779.957 114.24 778.497 112.333C777.036 110.44 773.531 109.267 770.461 113.653C767.395 118.027 761.551 122.707 757.607 123.587C753.661 124.467 749.133 122.56 738.323 119.64C744.459 118.467 751.763 109.707 751.763 109.707C751.763 109.707 735.401 111.453 734.379 111.027C733.356 110.587 730.873 104.88 732.48 103.133C734.087 101.373 740.66 87.36 743.436 83.7067C746.211 80.0534 746.211 74.9333 745.335 74.0533C744.459 73.1866 736.863 86.1866 735.985 85.4533C735.109 84.72 734.524 74.9333 734.379 68.0667C734.233 61.2 732.625 55.5067 730.873 49.52C729.12 43.5333 728.827 33.88 728.389 24.8267C727.951 15.7734 724.591 0 724.591 0C724.591 0 721.669 27.4533 719.769 35.0533C717.871 42.6533 718.456 52 718.456 62.08C718.456 72.16 714.656 81.8 713.927 90.5734C713.196 99.3334 716.921 110.733 716.921 110.733C716.921 110.733 703.7 116.573 697.125 117.08C690.552 117.6 677.112 114.52 677.112 114.52C677.112 114.52 684.783 122.2 693.328 123.587C685.293 127.6 673.315 124.747 673.315 124.747C673.315 124.747 674.337 130.6 686.461 136.293C698.588 141.987 701.948 138.627 703.847 140.827C705.745 143.013 727.073 159.813 726.344 163.027C725.613 166.24 715.241 174.867 709.544 176.173C703.847 177.493 686.9 178.8 667.763 172.52C676.967 186.107 697.419 187.28 697.419 187.28C697.419 187.28 677.112 189.467 669.661 186.4C662.211 183.333 656.368 183.92 656.368 183.92C656.368 183.92 662.065 195.747 669.371 197.36C676.675 198.96 678.281 199.253 686.608 202.76C694.935 206.267 709.983 203.347 709.983 203.347C709.983 203.347 686.461 222.627 668.055 225.987C672.584 233.293 680.619 234.32 695.957 233C711.296 231.693 729.412 224.24 729.412 224.24C729.412 224.24 724.445 233.733 714.072 241.627C703.7 249.507 699.756 248.347 695.081 247.76C690.407 247.173 686.171 247.32 680.911 251.56C675.652 255.787 670.1 258.427 662.796 259.293C655.491 260.173 650.671 259.88 646.433 256.52C642.197 253.16 634.601 253.16 634.601 253.16L634.747 251.12C634.747 251.12 637.231 252.427 647.311 250.68C657.391 248.92 659.583 238.987 659.583 238.987C659.583 238.987 656.368 242.053 652.132 242.347C651.985 236.213 645.412 234.027 640.736 226.133C636.063 218.253 640.152 217.813 635.624 209.773C631.096 201.747 632.556 198.813 632.264 189.32C631.972 179.827 629.488 178.653 628.612 172.813C627.735 166.973 628.612 150.32 628.612 150.32C628.612 150.32 620.285 168.28 620.285 175.587C620.285 182.893 620.869 197.8 619.263 203.64C617.655 209.48 609.62 221.027 609.62 221.027C609.62 221.027 608.452 213.427 608.889 205.533C601.732 216.64 607.429 230.667 607.429 230.667C607.429 230.667 603.485 226.573 600.417 217.667C598.517 238.413 614.879 246.293 614.879 246.293C614.879 246.293 611.228 249.653 605.237 253.013C599.248 256.373 600.124 261.933 600.124 261.933C600.124 261.933 597.348 258.72 592.091 253.16C595.085 266.667 599.54 272.44 614.879 276.68C610.789 276.68 605.092 283.253 598.811 283.253C592.528 283.253 581.571 277.707 579.38 276.973C577.189 276.24 572.368 275.947 575.291 283.107C578.211 290.267 587.269 296.693 587.269 296.693C587.269 296.693 579.745 293.773 576.459 293.48C585.661 306.773 606.991 313.493 608.305 315.84C609.62 318.173 609.765 329.427 606.845 335.12C603.923 340.813 575.873 358.053 569.884 357.907C563.896 357.76 546.365 346.213 546.365 346.213C546.365 346.213 556.736 345.933 571.345 344.32C585.955 342.72 592.528 334.293 592.528 334.293C592.528 334.293 584.249 335.267 581.231 334.48C591.847 328.053 596.424 320.853 594.087 319.973C591.749 319.093 572.66 321.24 562.727 320.067C552.792 318.907 539.936 309.453 539.936 309.453C539.936 309.453 558.636 299.227 559.415 294.067C564.772 293.68 568.668 286.173 567.985 284.04C567.304 281.893 563.311 280.147 560.485 282.48C557.661 284.813 554.74 283.933 550.651 283.547C546.56 283.16 541.105 278.587 541.593 277.32C542.08 276.053 547.047 277.507 550.163 276.733C553.28 275.947 552.987 272.053 556.98 272.053C560.973 272.053 563.019 271.373 567.012 268.16C569.739 269.04 573.343 269.72 574.705 266.6C576.068 263.48 574.024 260.267 574.024 260.267C574.024 260.267 579.868 254.627 579.185 249.653C583.86 247.52 586.783 245.56 589.801 239.04C586.197 242.547 578.699 245.853 571.687 245.853C564.675 245.853 560.195 247.52 555.909 247.52C551.624 247.52 538.184 249.36 538.671 247.32C539.157 245.28 543.832 241.773 550.456 240.107C557.077 238.453 562.288 234.853 563.263 231.933C564.236 229.013 561.412 224.573 558.733 225.893C556.055 227.213 554.059 227.453 551.819 227.213C549.579 226.96 547.192 223.36 543.345 223.747C539.499 224.147 536.82 222.827 537.112 221.56C537.404 220.293 538.428 220.827 544.417 216.987C550.407 213.133 551.429 205.347 551.429 205.347C551.429 205.347 548.361 208.467 546.024 208.653C545.099 206.8 540.863 206.947 538.817 206.947C536.772 206.947 532.779 205.147 532.584 203.64C532.389 202.133 535.847 201.253 538.233 199.6C540.619 197.947 544.513 194.973 543.735 192.147C542.956 189.32 538.671 188.84 537.259 187.96C535.847 187.08 532.243 184.693 532.243 182.453C532.243 180.213 533.315 177.387 533.509 172.627C533.704 167.853 533.704 162.973 531.853 158.693C530.003 154.413 530.879 142.92 530.879 142.92C530.879 142.92 528.055 149.147 528.249 156.547C528.445 163.947 526.984 181.587 524.452 183.427C521.92 185.28 517.244 187.907 516.757 192.773C516.271 197.653 523.38 200.667 523.38 200.667C523.38 200.667 514.907 201.747 512.569 206.32C510.233 210.893 517.148 219.56 517.148 219.56C517.148 219.56 513.739 219.56 509.453 219.267C505.168 218.973 498.935 215.867 498.935 215.867C498.935 215.867 498.156 219.08 505.363 222.68C500.883 222.773 499.909 227.307 499.909 227.307C499.909 227.307 494.211 223.8 488.368 217.08C493.627 237.093 519.777 243.32 519.777 243.32C519.777 243.32 517.635 245.373 514.712 246.147C511.791 246.933 507.505 246.64 501.272 246.64C495.04 246.64 490.949 251.6 491.047 254.52C491.144 257.453 493.968 262.8 501.565 261.64C501.176 264.173 506.532 266.013 513.348 269.427C505.948 268.453 493.481 270.693 489.196 271.96C484.911 273.227 476.048 271.28 476.048 271.28L479.263 285.107C479.263 285.107 484.813 285.493 486.372 288.52C487.929 291.533 493.968 291.44 493.968 291.44C493.968 291.44 489.585 295.133 482.233 294.653C487.053 301.96 511.451 295.093 511.451 297.28C511.451 299.467 498.448 307.507 492.459 309.547C488.675 310.84 483.961 310.507 481.001 310.08C481.768 306.427 481.813 303.147 480.333 302.533C477.216 301.28 470.497 303.52 465.335 305.76C460.173 308 450.921 305.947 450.921 305.947C450.921 305.947 458.712 304 460.271 300.4C453.745 299.227 447.805 290.653 444.98 290.267C442.156 289.88 437.384 293.587 434.072 293.093C430.761 292.6 430.956 289.973 429.689 286.96C428.424 283.933 430.761 282.093 429.689 277.707C428.619 273.32 423.36 269.813 421.996 267.093C420.632 264.36 420.243 256.08 420.243 250.827C420.243 245.56 422.191 227.253 418.393 227.36C414.595 227.453 416.347 233.587 416.055 241.187C415.763 248.773 414.011 249.947 412.939 254.92C411.868 259.88 414.789 257.253 413.717 263.387C412.647 269.52 410.211 275.56 405.829 280.533C402.128 280.627 399.499 285.307 396.675 287.253C393.849 289.2 392.584 292.027 394.727 292.8C396.869 293.587 398.524 295.72 397.551 296.6C396.576 297.48 396.48 299.907 399.401 300.307C402.323 300.693 404.368 306.333 403.296 308.387C402.225 310.427 390.344 308.773 385.28 309.36C380.215 309.947 377.293 312.96 374.275 311.987C371.256 311.013 367.36 307.8 365.607 310.04C363.853 312.28 365.996 314.72 366.58 316.76C367.164 318.8 369.404 320.467 369.404 323.867C358.984 322.6 348.953 328.253 346.323 328.347C343.693 328.44 340.381 327.96 339.408 329.227C338.433 330.493 337.071 331.56 333.76 330.2C330.448 328.84 324.897 329.707 324.897 329.707C324.897 329.707 329.181 323.96 333.955 316.76C338.727 309.547 335.22 306.44 335.805 304.293C336.389 302.147 346.225 297.08 346.907 288.707C343.791 289.093 336.195 295.72 336.195 295.72C336.195 295.72 338.239 290.267 339.7 286.76C341.161 283.253 340.381 276.533 339.603 275.653C338.824 274.787 336.096 274.107 338.824 271.867C341.551 269.627 342.428 263.387 342.428 263.387C342.428 263.387 320.124 283.653 318.761 283.253C317.397 282.867 316.229 278 316.229 278C316.229 278 320.612 277.707 323.241 277.027C325.871 276.347 328.403 270.013 328.403 267.867C328.403 265.72 323.825 266.707 323.144 265.92C322.461 265.147 324.215 264.747 325.871 263.2C327.527 261.64 326.163 255.787 321.683 254.333C317.203 252.867 309.607 249.853 308.437 247.027C307.269 244.2 308.437 238.84 308.437 238.84C308.437 238.84 316.229 239.92 323.144 243.72C330.059 247.52 343.401 253.067 361.321 244.493C352.945 246.533 338.921 244.107 333.565 238.16C338.532 239.04 346.128 233.973 347.979 225.013C349.829 216.053 345.933 216.253 343.207 217.52C340.48 218.787 334.831 218.787 332.591 216.347C330.351 213.92 324.313 213.333 323.241 211.093C322.171 208.853 317.884 205.733 315.936 203.88C313.988 202.027 311.847 199.987 313.308 193.947C323.533 199.893 333.272 194.827 333.272 194.827C333.272 194.827 330.935 192.493 324.313 190.253C327.527 190.253 342.524 178.08 340.381 172.227C338.239 166.387 324.117 167.653 320.612 169.013C317.105 170.373 310.727 169.307 307.951 168C305.176 166.68 306.636 165.507 306.489 163.467C306.344 161.427 304.152 162.587 303.568 159.667C302.984 156.747 304.445 153.973 306.928 155.72C309.412 157.48 313.356 158.053 317.3 154.707C321.244 151.333 323.583 144.627 320.223 142.573C316.863 140.533 312.917 136.293 310.433 130.747C307.951 125.187 301.376 124.747 301.376 124.747C301.376 124.747 301.669 106.2 301.376 97.2934C301.085 88.3734 300.5 64.4133 298.601 64.4133C296.703 64.4133 297.725 82.3867 297.579 88.8133C297.432 95.24 294.656 104.733 292.664 109.56C290.671 114.373 291.224 124.387 291.224 124.387C291.224 124.387 286.987 119.933 279.756 120.667C285.015 122.707 287.864 131.693 287.207 132.64C286.549 133.587 280.267 138.707 280.048 143.6C273.475 140.533 262.517 143.6 262.517 143.6C262.517 143.6 274.424 145.2 278.368 150.533C267.923 149.733 263.832 155.387 263.832 155.387C263.832 155.387 269.968 154.6 276.591 154.213C283.213 153.827 290.42 154.987 292.664 158.013C288.772 165.413 280.876 168.827 276.299 168.827C271.721 168.827 268.215 172.52 264.904 172.427C261.593 172.333 258.281 174.173 249.125 174.76C252.925 176.32 257.308 177.2 260.911 177.293C264.513 177.387 265.391 180.6 270.552 181.773C275.713 182.947 276.493 182.267 281.46 186.64C286.428 191.027 292.563 190.933 292.66 192C292.757 193.067 290.811 195.413 286.817 196.28C282.824 197.16 274.643 199.307 269.676 199.307C264.708 199.307 262.177 201.747 257.793 202.32C253.412 202.907 246.011 200.08 244.159 202.32C242.309 204.56 242.893 208.173 249.224 211.387C255.555 214.6 267.436 219.76 267.436 219.76C267.436 219.76 260.229 223.653 257.209 225.893C254.191 228.133 250.393 229.4 242.991 229.987C235.589 230.573 224.876 230.08 224.876 230.08C224.876 230.08 230.524 235.053 234.517 235.533C238.511 236.027 239.387 237.48 241.432 239.627C243.477 241.773 260.619 241.96 271.137 241.96C281.655 241.96 285.064 238.267 285.064 238.267C285.064 238.267 283.992 243.613 280.485 244.2C276.98 244.787 276.591 246.347 270.065 249.653C263.54 252.973 261.3 253.067 251.367 252.973C241.432 252.867 236.855 251.6 223.609 250.04C234.225 260.173 255.164 258.813 255.164 258.813C255.164 258.813 246.984 263.587 237.343 264.067C249.224 269.333 259.157 264.56 261.884 265.04C264.612 265.533 268.215 268.653 272.5 270.2C276.785 271.76 278.052 274.787 283.116 276.92C288.18 279.067 292.563 278.093 292.173 279.067C291.784 280.04 288.472 279.947 284.869 280.627C281.265 281.307 278.636 285.2 271.332 285.693C264.027 286.173 253.801 282.187 250.977 283.653C248.152 285.107 250.1 293.773 252.925 298.84C255.749 303.907 268.799 308 276.493 309.253C284.187 310.52 288.863 314.133 289.057 317.24C289.252 320.36 274.935 328.64 268.799 330.107C262.664 331.56 258.087 329.52 252.048 330.107C246.011 330.68 241.043 337.307 244.549 343.84C248.055 350.36 261.593 357.467 261.593 357.467C261.593 357.467 254.775 360.293 249.808 359.52C244.841 358.733 235.784 360 241.531 367.307C245.243 372.027 258.037 374.587 266.645 375.8C266.152 376.173 265.78 376.467 265.78 376.467C265.78 376.467 254.969 385.133 247.179 389.213C239.387 393.307 220.445 398.88 220.445 398.88C220.445 398.88 228.699 388.147 227.603 384.72C226.508 381.28 223.001 379.68 216.5 381.227C232.668 373.44 230.623 363.12 229.356 362.333C228.091 361.56 225.753 361.653 222.733 364C219.713 366.333 208.319 368.48 203.84 367.693C199.36 366.92 190.692 362.827 190.692 362.827C190.692 362.827 197.12 363.893 199.652 362.827C202.184 361.76 203.451 360.093 208.124 359.707C212.799 359.32 217.864 353.373 214.163 344.52C229.064 342.96 241.531 328.253 239.485 327.28C237.439 326.307 229.94 334.587 223.22 335.067C226.628 325.813 228.576 313.747 223.805 312.667C219.033 311.6 215.624 320.467 212.508 320.947C209.391 321.44 205.788 324.747 202.281 325.333C198.775 325.92 197.801 325.227 183.728 324.547C192.055 323.387 198.288 314.32 199.457 307.413C200.625 300.493 199.555 297.28 197.217 296.6C194.879 295.92 192.736 298.453 190.4 298.453C188.063 298.453 185.432 297.373 182.705 296.013C179.979 294.653 172.187 296.013 172.187 296.013C172.187 296.013 180.757 289.68 182.997 285.88C185.237 282.093 190.984 277.413 201.112 267.96C198.093 267.48 188.744 272.347 188.744 272.347C188.744 272.347 187.477 267.867 183.972 266.413C180.465 264.947 171.019 269.333 170.337 269.04C169.655 268.747 169.071 267.773 169.655 265.333C172.187 265.333 176.472 254.427 177.057 249.56C177.641 244.693 178.031 232.613 176.083 229.88C174.135 227.16 172.576 224.627 173.356 220.92C174.135 217.227 171.992 213.52 166.344 207.293C166.344 207.293 165.077 232.027 164.688 234.173C164.299 236.32 163.228 236.507 159.527 244.88C155.825 253.253 158.357 273.32 156.02 269.48C153.683 265.627 148.229 263.147 143.749 263.627C139.269 264.12 139.073 269.627 140.827 272.16C142.58 274.68 147.985 282.373 152.076 289.24C156.167 296.107 154.171 300.2 154.171 300.2C154.171 300.2 150.956 300.787 143.555 305.173C136.152 309.547 140.34 320.653 140.34 320.653C140.34 320.653 132.549 316.667 126.803 317.347C135.179 326.013 153.78 329.227 153.78 329.227C153.78 329.227 137.321 334.68 127.583 333.613C117.843 332.533 95.54 332.64 95.0533 332.64C94.5667 332.64 116.091 345.68 116.091 345.68C116.091 345.68 106.74 343.253 100.995 346.08C106.935 352.013 123.296 352.213 123.296 352.213C123.296 352.213 130.236 356.373 139.585 356.813C139.513 361.333 150.956 366.813 150.956 366.813C150.956 366.813 132.841 375.387 126.608 376.36C120.375 377.333 117.453 372.853 113.753 375.973C110.052 379.093 112.973 385.707 120.18 385.907C115.116 387.08 91.7413 392.92 91.7413 392.92C91.7413 392.92 110.247 394.667 113.557 396.227C116.869 397.787 131.283 395.653 137.516 395.653C143.749 395.653 142.775 399.547 141.607 402.08C140.437 404.6 122.907 411.04 113.168 412.2C103.429 413.373 91.7413 415.12 91.7413 415.12C91.7413 415.12 98.3653 415.32 107.129 420.573C115.896 425.84 131.477 429.347 131.477 429.347L116.285 434.987C116.285 434.987 134.789 434.987 152.708 438.693C145.697 444.533 121.739 457.973 101.871 461.093C105.376 463.813 127.777 474.533 146.671 463.627C140.632 472.387 119.596 482.52 110.247 482.52C100.897 482.52 92.9107 474.733 92.9107 474.733C92.9107 474.733 93.3 489.147 110.636 495.373C103.429 495.187 89.7933 499.267 89.7933 499.267C89.7933 499.267 123.687 506.28 153.293 498.293C148.229 509.787 132.647 513.88 121.153 516.8C109.661 519.72 105.765 516.8 86.6773 519.72C107.129 535.493 128.361 534.333 128.361 534.333C128.361 534.333 123.881 540.173 94.8587 543.293C65.836 546.413 46.9427 531.413 46.9427 531.413C46.9427 531.413 58.2387 551.08 104.403 562.373C84.34 569.973 60.9667 572.12 36.424 565.88C41.488 573.093 62.1347 576.8 62.1347 576.8C62.1347 576.8 41.0987 578.347 21.816 568.613C32.9173 591.987 47.1373 592.96 51.4227 593.347C55.7067 593.747 75.5747 610.107 75.5747 610.107C75.5747 610.107 40.904 612.64 13.4387 598.413C22.7893 616.72 52.396 628.027 52.396 628.027C52.396 628.027 43.8253 629 26.2947 622.173C37.6893 633.867 73.6267 649.453 131.673 644.387C119.207 661.92 57.6547 675.547 0 657.24C35.06 694.64 73.432 688.213 73.432 688.213C73.432 688.213 54.344 715.867 4.09066 707.88C22.2053 728.92 59.6027 727.36 59.6027 727.36H1129.74L1097.84 704.133C1121.07 716.107 1161.54 719.32 1174.69 708.227C1156.13 713.627 1134.22 694.347 1134.22 694.347C1134.22 694.347 1142.84 695.08 1148.83 690.84C1154.82 686.6 1159.49 685 1171.04 682.8C1182.57 680.613 1187.4 672.427 1187.4 672.427C1187.4 672.427 1158.04 673.6 1149.85 673.307C1141.67 673.013 1129.54 673.013 1105.15 652.12C1130.71 664.4 1176.73 667.027 1193.68 654.32C1181.56 657.24 1166.8 651.547 1166.8 651.547C1166.8 651.547 1175.7 649.787 1185.49 645.987C1195.29 642.187 1205.12 628.707 1205.12 628.707Z" fill="black"/>
<path d="M2317.27 540.533L2305.42 519.453L2339.94 534.2L2317.27 540.533ZM3376.14 701.107C3367.7 688.107 3353.65 682.48 3351.54 673.707C3349.43 664.92 3343.11 659.64 3340.3 654.373C3337.49 649.107 3345.3 615.373 3342.41 608C3339.51 600.613 3325.02 596.667 3324.75 595.613C3324.49 594.56 3351.02 577.253 3350.49 570.4C3349.97 563.547 3349.43 561.08 3349.43 561.08C3349.43 561.08 3357.17 557.227 3359.79 553.88C3338.54 561.96 3314.65 564.6 3308.33 564.427C3320.27 557.227 3329.41 552.307 3332.22 547.56C3335.03 542.813 3348.73 537.187 3350.31 532.453C3342.75 534.907 3333.27 535.787 3333.27 535.787C3333.27 535.787 3349.97 531.04 3354.18 523.32C3329.06 532.627 3318.17 531.747 3312.02 530.347C3305.86 528.933 3300.86 525.867 3295.94 526.733C3291.02 527.613 3291.9 520.507 3289.09 519.627C3286.27 518.747 3288.03 512.6 3290.41 510.227C3292.78 507.853 3295.41 505.747 3300.69 505.747C3305.95 505.747 3337.31 498.893 3347.33 485.893C3335.9 492.387 3322.55 492.213 3322.55 492.213C3322.55 492.213 3335.03 485.187 3339.25 474.293C3343.46 463.4 3342.94 456.907 3331.17 458.48C3319.39 460.067 3317.81 465.333 3310.97 462.173C3304.11 459.013 3298.83 457.08 3293.22 457.787C3287.59 458.48 3280.74 455.32 3278.1 452.693C3275.47 450.053 3274.94 447.413 3274.94 447.413C3274.94 447.413 3301.65 443.2 3307.45 432.48C3300.25 433.533 3288.3 436.707 3288.3 436.707C3288.3 436.707 3306.22 420.707 3309.9 405.96C3303.67 408.893 3292.07 421.28 3292.07 421.28C3292.07 421.28 3290.75 414.827 3286.54 414.96C3282.33 415.093 3280.87 417.467 3280.87 417.467C3280.87 417.467 3274.42 414.48 3272.75 411.4C3271.07 408.32 3267.13 407.093 3267.13 407.093C3267.13 407.093 3277.41 398.133 3275.99 387.947C3274.59 377.76 3267.22 378.813 3263.35 378.027C3259.49 377.227 3252.81 367.48 3250.7 361.773C3248.59 356.053 3247.79 339.453 3247.27 330.493C3246.74 321.533 3248.06 311.387 3244.9 309.147C3241.74 306.907 3244.11 293.867 3242.39 293.6C3240.69 293.347 3238.97 301.373 3238.58 312.187C3238.18 322.987 3231.46 360.28 3220.26 372C3221.98 372.4 3226.46 370.16 3226.46 370.16C3226.46 370.16 3217.89 381.76 3212.35 381.627C3221.05 384 3230.41 375.693 3230.41 375.693C3230.41 375.693 3230.67 385.44 3229.09 389C3227.51 392.56 3201.29 396.507 3197.46 394.4C3193.65 392.293 3188.77 390.187 3187.19 390.453C3185.61 390.72 3189.03 397.827 3194.57 401.253C3200.1 404.68 3211.03 406.92 3211.03 406.92C3211.03 406.92 3204.71 412.053 3207.74 417.987C3210.78 423.92 3212.75 423.653 3212.75 423.653C3212.75 423.653 3199.18 430.64 3196.54 438.813C3193.91 446.973 3198.13 455.68 3203.26 457.787C3201.42 461.733 3179.02 472.8 3171.25 471.48C3163.47 470.173 3161.89 471.747 3162.02 474.653C3162.15 477.547 3170.58 481.76 3181.39 481.107C3186.14 483.347 3183.77 486.107 3180.47 485.987C3188.11 491.12 3207.49 483.747 3207.49 483.747C3207.49 483.747 3200.63 490.987 3200.37 494.547C3213.54 494.013 3218.02 484.533 3218.02 484.533C3218.02 484.533 3217.23 498.24 3206.82 515.107C3196.41 531.96 3184.15 536.707 3184.15 536.707C3184.15 536.707 3190.74 536.973 3196.15 536.32C3195.22 541.587 3202.47 546.72 3211.57 544.613C3206.03 549.227 3206.69 555.813 3205.23 559.64C3203.79 563.453 3199.05 566.093 3193.51 567.413C3187.98 568.733 3185.41 565 3174.27 565.173C3171.38 565.213 3171.38 565.213 3171.38 565.213C3171.38 565.213 3175.15 561.08 3178.31 558.187C3181.47 555.293 3181.47 550.72 3178.05 546.333C3174.63 541.933 3169.35 543.16 3165.58 542.72C3161.81 542.293 3160.39 539.827 3160.39 539.827C3160.39 539.827 3180.95 534.56 3184.21 530.16C3187.45 525.773 3198.97 507.853 3193.25 501.973C3187.54 496.08 3184.21 507.413 3176.3 504.253C3168.39 501.093 3167.95 499.947 3158.29 502.147L3162.86 498.013C3162.86 498.013 3152.93 492.48 3142.65 488C3132.38 483.52 3127.54 477.72 3127.54 477.72C3127.54 477.72 3131.75 471.667 3135.27 470.693C3138.79 469.733 3143.01 466.92 3143.97 460.413C3144.94 453.92 3147.93 448.027 3144.94 446.453C3141.95 444.867 3132.63 449.52 3127.1 448.56C3121.57 447.587 3106.02 438.013 3101.98 434.24C3097.94 430.467 3089.94 430.107 3089.94 430.107C3089.94 430.107 3090.38 424.4 3088.54 422.2C3086.7 420.013 3095.22 412.627 3098.21 413.68C3101.19 414.733 3125.43 420.013 3135.54 412.013C3124.3 413.24 3107.95 403.933 3107.95 403.933C3107.95 403.933 3130.7 401.653 3135.62 395.587C3140.54 389.533 3147.57 383.373 3143.09 379.16C3138.61 374.947 3131.67 382.76 3127.81 380.573C3123.94 378.373 3113.93 372.133 3107.69 371.347C3126.58 369.493 3145.63 349.293 3146.43 345.52C3147.22 341.747 3145.99 338.053 3148.71 333.227C3151.43 328.387 3151.09 320.573 3151.09 320.573C3151.09 320.573 3135.67 341.307 3116.43 344.867C3097.19 348.413 3082.7 347.107 3072.95 339.587C3063.19 332.08 3066.75 318.107 3066.75 318.107C3066.75 318.107 3074.53 320.093 3084.02 320.093C3078.62 311.787 3073.07 311 3073.07 311C3073.07 311 3082.3 310.08 3079.74 301.187C3085.53 304.48 3104.97 299.8 3109.98 291.893C3106.09 292.213 3102.59 292.347 3102.59 292.347C3102.59 292.347 3105.23 290.84 3105.5 287.413C3105.75 283.987 3091.53 277.067 3091.53 277.067C3091.53 277.067 3092.25 274.36 3090.87 272.987C3089.49 271.6 3087.51 271.4 3087.51 271.4C3087.51 271.4 3088.37 268.827 3084.54 264.093C3080.73 259.347 3076.51 259.013 3076.51 259.013C3076.51 259.013 3076.45 251.373 3076.97 251.307C3077.5 251.24 3079.07 253.547 3081.31 252.627C3083.55 251.707 3083.1 246.427 3081.78 240.107C3080.46 233.787 3073.21 225.147 3071.1 221.067C3068.99 216.987 3065.9 214.547 3065.83 207.693C3065.77 200.84 3065.37 196.96 3064.45 194.253C3063.53 191.547 3061.22 189.907 3061.15 186.08C3061.09 182.267 3059.45 170.08 3057.99 169.613C3056.54 169.147 3057.41 180.027 3055.82 183.453C3054.23 186.88 3054.97 194.84 3054.83 200.64C3054.7 206.44 3054.5 212.04 3053.05 215.267C3051.61 218.493 3038.69 245.64 3038.69 245.64C3038.69 245.64 3047.06 239.76 3049.17 235.72C3047.38 245.187 3046.14 249.267 3046.14 249.267H3050.09C3050.09 249.267 3038.3 261.987 3032.85 266.2C3027.41 270.413 3032.14 285.52 3029.95 289.293C3027.75 293.08 3014.85 291.587 3014.85 291.587C3014.85 291.587 3021.69 295.627 3028.54 296.947C3018.7 300.187 2995.69 299.4 2989.02 292.987C3002.63 310.56 3018.53 311.52 3018.53 311.52C3018.53 311.52 3002.19 315.04 2990.59 311.267C2998.67 319.347 3014.75 326.547 3024.94 324.52C3022.39 330.853 2997.98 352.547 2997.98 352.547C2997.98 352.547 3007.55 351.667 3012.47 346.747C3012.73 351.76 3013.61 355.707 3013.61 355.707C3013.61 355.707 3020.46 349.213 3025.3 344.813C3030.13 340.427 3046.02 316.973 3046.02 316.973C3046.02 316.973 3035.13 347.627 3025.47 360.8C3015.81 373.987 2990.15 394.707 2990.15 394.707C2990.15 394.707 2996.49 395.68 3000.43 393.653C3005.62 401.04 3020.55 398.573 3020.55 398.573C3020.55 398.573 3013.53 412.187 3011.81 417.987C3010.1 423.787 2993.5 435.12 2993.5 435.12C2993.5 435.12 3003.11 419.573 2999.69 417.2C2996.26 414.827 2988.09 427.48 2974.26 429.187C2960.42 430.907 2946.33 425.107 2946.33 425.107C2946.33 425.107 2958.1 416.853 2958.27 413.067C2958.45 409.293 2943.69 405.6 2940.18 396.907C2936.66 388.213 2932.18 374.067 2932.18 374.067C2932.18 374.067 2944.22 390.76 2950.01 394.013C2955.81 397.253 2962.83 401.653 2966.09 403.227C2969.34 404.813 2985.23 404.28 2985.23 404.28L2968.19 397.693C2968.19 397.693 2987.34 396.2 2987.53 389.44C2987.7 382.68 2971.97 380.653 2961.07 368.093C2950.19 355.533 2936.39 340.693 2936.39 340.693C2936.39 340.693 2945.18 343.587 2947.55 346.133C2949.93 348.68 2958.1 349.56 2962.22 349.027C2966.35 348.507 2973.02 350.347 2977.94 344.733C2972.33 345.867 2969.07 344.2 2968.29 342.533C2967.49 340.867 2961.34 337.52 2957.3 335.853C2953.26 334.187 2950.98 328.653 2944.83 322.067C2938.69 315.48 2930.78 301.6 2930.78 301.6C2930.78 301.6 2943.59 300.373 2950.37 290.36C2957.13 280.333 2950.45 273.493 2949.39 273.493C2948.34 273.493 2942.46 274.893 2936.49 272.613C2930.51 270.32 2927.18 265.053 2924.37 265.147C2925.42 259.96 2919.7 253.813 2917.34 251.613C2914.97 249.413 2913.91 244.147 2914.43 243C2914.97 241.867 2931.74 240.987 2931.74 232.2C2931.74 223.413 2924.1 217.88 2916.98 217.267C2909.87 216.653 2912.77 203.387 2906.89 198.027C2900.99 192.667 2904.77 142.6 2899.59 141.453C2894.41 140.32 2897.57 149.987 2891.86 159.56C2886.15 169.133 2889.22 177.213 2888.97 186C2888.7 194.773 2884.83 201.453 2884.66 207.347C2884.49 213.227 2879.3 215.6 2878.42 220.253C2877.54 224.907 2878.42 227.2 2876.83 231.147C2875.26 235.107 2862.09 239.053 2861.99 242.48C2861.9 245.907 2866.82 257.147 2873.15 257.68C2861.38 260.4 2866.65 267.867 2861.46 270.587C2856.29 273.307 2845.66 277.44 2841.43 279.28C2837.22 281.133 2828.97 287.8 2829.05 292.107C2829.14 296.413 2840.47 299.32 2840.47 299.32L2829.75 309.413C2829.75 309.413 2840.99 307.04 2847.85 303.707C2854.7 300.373 2864.02 302.307 2864.02 302.307C2864.02 302.307 2855.93 316 2846.1 322.507C2836.26 329 2837.01 334.467 2828.39 336.027C2822.59 337.08 2818.9 335.64 2813.23 339.987C2807.58 344.333 2796.9 355.267 2793.74 355.267C2790.58 355.267 2781.09 355.533 2774.9 365.147C2784.51 360.547 2791.37 360.013 2796.38 364.227L2785.83 375.427C2785.83 375.427 2795.06 370.813 2803.22 368.053C2811.39 365.28 2817.33 360.8 2827.34 362.253C2823.65 371.08 2816.41 383.467 2810.21 388.867C2804.02 394.267 2789.91 403.36 2784.78 411.8C2795.85 405.6 2802.57 401.92 2807.45 401.92C2812.31 401.92 2829.05 395.453 2840.13 385.307C2851.19 375.16 2868.85 354.88 2868.85 354.88C2868.85 354.88 2866.21 372 2860.29 383.067C2854.35 394.147 2847.63 397.56 2844.86 405.467C2842.1 413.373 2831.42 419.307 2828.53 423.133C2825.63 426.947 2815.87 430.373 2812.18 439.333C2822.19 434.72 2852.38 434.587 2852.38 434.587C2852.38 434.587 2829.71 448.693 2813.5 459.107C2797.3 469.507 2778.71 473.2 2772.91 472.547C2767.13 471.88 2749.34 473.6 2743.54 477.813C2752.77 478.08 2757.9 478.333 2760.41 482.027C2762.9 485.72 2766.33 482.68 2771.74 485.053C2777.14 487.427 2785.3 488.093 2800.06 484.533C2814.82 480.973 2835.51 477.147 2835.51 477.147C2835.51 477.147 2811.13 494.933 2798.22 496C2785.3 497.053 2771.34 494.813 2767.13 496.92C2770.69 503.24 2776.87 504.293 2782.27 504.96C2787.67 505.613 2795.98 510.88 2795.98 510.88L2783.46 517.08C2783.46 517.08 2791.37 518.787 2805.86 515.893C2820.35 512.987 2827.99 508.373 2827.99 508.373C2827.99 508.373 2826.77 516.28 2821.23 520.413C2815.7 524.547 2811.49 517.427 2803.31 524.187C2795.14 530.96 2790.75 525.947 2787.59 528.053C2784.43 530.16 2777.75 525.067 2771.69 528.587C2765.63 532.093 2761.85 539.48 2760.79 544.613C2759.74 549.76 2762.25 549.36 2759.22 554.24C2756.18 559.107 2753.15 562.147 2746.57 563.987C2739.98 565.827 2738.01 574.267 2733.53 574.52C2729.05 574.787 2721.41 575.187 2718.37 576.107C2726.54 567.933 2727.73 551.6 2727.73 551.6C2727.73 551.6 2715.07 565.173 2713.5 569.787C2717.45 556.48 2711.38 513.52 2711.38 513.52C2711.38 513.52 2705.46 536.053 2701.5 553.307C2697.55 570.573 2692.67 584.147 2692.67 584.147C2692.67 584.147 2683.58 592.187 2681.87 592.187C2680.15 592.187 2679.57 589.88 2677.53 590.467C2675.49 591.067 2673.7 603.253 2681.07 611.027C2675.59 617.04 2667.25 617.747 2664.78 616.253C2662.33 614.76 2652.14 613.973 2649.33 612.56C2646.51 611.16 2633.11 611.947 2626.93 614.187C2620.73 616.427 2613.22 616.6 2611.73 614.667C2610.23 612.733 2599.43 613.787 2595.22 612.827C2590.99 611.853 2597.14 605.093 2602.5 602.027C2607.86 598.947 2608.3 586.653 2606.02 584.453C2603.74 582.253 2589.33 585.68 2587.74 582.613C2586.17 579.533 2599.87 576.2 2603.21 576.547C2606.54 576.893 2623.33 575.4 2623.33 575.4C2623.33 575.4 2614.81 570.4 2608.83 569.693C2615.5 567.147 2618.93 556.427 2619.02 552.307C2619.11 548.173 2634.05 536.84 2641.59 517.253C2630.53 526.387 2607.69 546.413 2590.3 544.133C2609.1 540.093 2623.67 520.147 2623.67 520.147C2623.67 520.147 2600.13 535.267 2586.51 529.64C2572.9 524.013 2570.97 525.067 2570.97 525.067C2570.97 525.067 2574.09 518.987 2579.49 517.667C2584.89 516.347 2586.27 510.16 2583.83 507.453C2581.41 504.76 2575.41 503.96 2574.09 502.12C2572.77 500.28 2585.82 501.787 2587.26 499.813C2588.71 497.84 2596.22 498.36 2599.58 499.427C2602.94 500.48 2610.98 496.787 2610.98 496.787C2610.98 496.787 2607.82 493.293 2602.22 491.52C2596.62 489.733 2597.21 487.893 2597.54 487.36C2597.87 486.84 2602.62 486.84 2607.82 485.12C2613.02 483.413 2618.42 475.96 2618.42 475.96C2618.42 475.96 2608.03 479.653 2597.77 478.6C2587.49 477.547 2582.57 475.96 2581.07 474.213C2579.58 472.453 2576.42 472.547 2576.42 472.547C2576.42 472.547 2576.53 469.053 2574.22 465.76C2571.91 462.467 2565.85 461.08 2566.18 458.44C2566.51 455.8 2574.62 456.533 2578.23 448.96C2581.86 441.373 2574.29 437.947 2570.99 435.053C2567.7 432.16 2563.67 428.067 2563.67 428.067C2563.67 428.067 2577.18 431.893 2584.43 428.333C2577.38 426.067 2566.07 417.8 2562.62 413.773C2559.46 410.08 2560.25 397.56 2560.51 387.293C2560.78 377.013 2563.94 341.44 2563.15 341.44C2562.35 341.44 2558.27 360.013 2557.09 367.387C2555.9 374.773 2551.95 379.773 2551.03 382.933C2550.1 386.107 2551.95 395.72 2548.79 400.2C2545.63 404.68 2533.77 410.613 2533.9 412.187C2534.03 413.773 2527.05 416.187 2527.05 416.187C2527.05 416.187 2540.62 418.6 2544.7 416.187C2548.79 413.773 2546.81 422.08 2544.97 424.44C2543.13 426.813 2541.54 432.093 2540.89 437.093C2540.22 442.107 2535.22 439.733 2532.85 443.293C2530.47 446.84 2528.37 447.507 2528.37 448.96C2528.37 450.4 2535.35 451.853 2536.01 454.493C2536.66 457.12 2530.82 467.187 2525.11 469.907C2519.41 472.627 2512.38 474.653 2511.77 477.987C2511.15 481.32 2513.78 484.493 2513.78 484.493C2513.78 484.493 2514.22 489.587 2517.65 489.667C2521.07 489.76 2502.89 493.973 2496.66 490.72C2490.42 487.48 2493.85 498.8 2497.45 501.093C2501.05 503.373 2501.83 507.147 2505.87 508.907C2509.91 510.667 2517.03 508.467 2517.03 508.467C2517.03 508.467 2512.99 525.947 2509.91 525.333C2506.85 524.72 2502.98 518.92 2500.26 513.48C2497.53 508.027 2493.49 501.707 2490.5 499.6C2487.51 497.493 2477.5 478.427 2476.81 472.187C2476.1 465.947 2472.23 453.387 2472.23 453.387C2472.23 453.387 2483.47 465.693 2489.54 467.8C2495.59 469.907 2504.38 467.187 2504.38 467.187C2504.38 467.187 2495.17 462.093 2489.71 458.747C2498.15 462.093 2521.86 450.227 2521.86 450.227C2521.86 450.227 2509.39 448.12 2501.66 448.907C2502.89 446.28 2529.71 439.093 2531.09 428C2522.47 427.213 2509.91 431.787 2509.91 431.787C2509.91 431.787 2509.66 429.147 2504.38 428.093C2499.11 427.04 2488.66 424.933 2484.71 419.4C2480.75 413.867 2469.86 395.24 2472.06 390.933C2474.25 386.627 2478.47 382.853 2477.5 378.107C2481.19 383.733 2490.77 382.76 2495.25 382.853C2499.73 382.933 2506.49 382.507 2513.61 378.987C2504.91 376.973 2488.93 375.12 2488.93 375.12C2488.93 375.12 2503.33 374.947 2509.57 369.587C2515.81 364.227 2520.55 357.373 2520.55 357.373L2503.86 361.68C2503.86 361.68 2505.43 354.92 2502.98 354.133C2500.51 353.333 2490.59 355.093 2484.79 345.96C2478.99 336.827 2473.63 328.653 2473.63 328.653L2475.22 323.12C2475.22 323.12 2483.83 327.067 2489.27 324.267C2494.73 321.453 2499.46 315.04 2499.46 315.04C2499.46 315.04 2516.51 311 2516.69 301.867C2516.51 299.227 2504.47 301.333 2500.43 300.987C2496.39 300.627 2489.37 294.653 2488.57 291.587C2487.78 288.507 2488.69 284.8 2486.73 283.587C2484.79 282.4 2479.43 283.413 2478.11 282.053C2476.81 280.693 2471.83 273.4 2471.83 273.4C2471.83 273.4 2478.21 278.28 2482.73 277.173C2487.26 276.08 2490.63 274.32 2490.63 274.32C2490.63 274.32 2486.21 266.64 2479.18 264.093C2472.14 261.547 2473.82 259.747 2475.53 259.56C2477.23 259.387 2481.37 258.427 2482.73 254.333C2484.09 250.253 2485.21 246.627 2480.99 242.747C2476.78 238.853 2475.79 235.04 2476.85 232.733C2477.9 230.427 2476.58 222.253 2474.07 219.36C2471.58 216.453 2471.18 208.813 2471.25 205.387C2471.31 201.96 2468.94 189.44 2468.94 189.44C2468.94 189.44 2465.47 207.693 2465.03 212.173C2464.59 216.653 2465.3 223.413 2462.13 227.813C2458.97 232.2 2456.59 233.787 2457.74 240.373C2458.89 246.96 2456.34 251.96 2452.65 256.187C2448.95 260.4 2447.81 265.667 2449.83 268.04C2451.85 270.413 2457.65 269.707 2458.97 271.64C2460.29 273.573 2460.11 284.12 2455.98 287.107C2451.85 290.093 2443.86 296.947 2430.59 297.467C2417.33 298 2413.55 302.12 2410.47 299.84C2407.41 297.56 2405.57 295.627 2403.27 298.52C2400.99 301.427 2392.91 310.12 2392.55 313.72C2392.21 317.32 2400.38 316.267 2403.19 314.067C2405.99 311.88 2405.38 317.933 2413.73 315.827C2409.95 321.627 2402.83 330.587 2398.62 330.493C2394.41 330.413 2393.35 330.147 2393.53 332.787C2393.7 335.413 2397.39 337.707 2403.1 336.653C2408.81 335.587 2423.22 333.227 2426.29 328.307C2429.37 323.387 2430.15 322.24 2431.21 322.333C2432.26 322.413 2431.21 324.96 2433.41 326.987C2435.61 329 2444.47 328.04 2444.47 328.04C2444.47 328.04 2425.23 342.187 2411.18 346.04C2417.69 348.507 2425.94 345.96 2425.94 345.96C2425.94 345.96 2411.71 354.92 2405.21 354.92C2398.71 354.92 2398.45 357.64 2392.91 355.36C2387.38 353.08 2373.14 346.04 2370.59 346.227C2368.05 346.4 2372.45 353.16 2375.17 355C2377.89 356.853 2378.25 356.933 2380.43 360.187C2382.63 363.44 2386.77 365.813 2391.07 366.253C2395.37 366.693 2409.69 366.6 2410.83 367.92C2411.97 369.24 2400.42 378.587 2394.23 378.333C2388.03 378.067 2379.34 377.933 2378.55 379.773C2377.75 381.627 2385.27 382.813 2386.58 384.787C2387.9 386.76 2393.97 384.253 2396.61 384.787C2399.23 385.307 2402.66 387.16 2407.01 384.52C2411.35 381.88 2413.73 381.627 2417.55 381.627C2421.37 381.627 2430.73 374.373 2430.73 374.373C2430.73 374.373 2424.79 382.813 2420.98 385.707C2417.15 388.6 2410.3 392.827 2410.3 392.827C2410.3 392.827 2425.06 391.507 2440.74 378.587C2439.82 388.08 2438.63 402.307 2417.15 417.987C2395.67 433.667 2348.9 432.213 2342.97 431.16C2349.43 437.627 2355.22 439.467 2356.94 444.08C2349.03 445 2344.29 444.213 2344.29 444.213C2344.29 444.213 2354.7 450.267 2366.69 448.693C2378.69 447.107 2387.51 441.187 2387.51 441.187C2387.51 441.187 2375.91 455.28 2366.95 456.987C2357.99 458.707 2339.54 456.333 2339.54 456.333C2339.54 456.333 2348.51 465.693 2354.83 467.267C2361.15 468.853 2363.39 470.307 2365.9 471.88C2368.41 473.467 2392.78 464.64 2392.78 464.64L2375.38 476.36C2375.38 476.36 2392.51 477.027 2406.22 465.427C2419.93 453.827 2428.09 445.267 2429.54 446.32C2430.99 447.373 2421.37 461.733 2405.3 474.773C2389.22 487.827 2370.9 497.973 2352.46 498.36C2358.91 493.093 2368.23 489.32 2370.69 483.52C2361.55 487.293 2346.26 479.92 2346.26 479.92L2353.99 477.027C2353.99 477.027 2305.42 460.413 2301.99 443.813C2298.57 427.213 2295.67 426.067 2295.67 420.093C2295.67 414.12 2292.25 410.08 2292.25 410.08C2292.25 410.08 2307.18 420.187 2314.03 420.533C2320.87 420.893 2338.71 416.187 2338.71 416.187L2326.59 411.747C2326.59 411.747 2351.98 413.333 2362.17 405.773L2344.59 405.693C2344.59 405.693 2353.47 400.947 2357.51 401.04C2361.55 401.12 2364.98 397.52 2366.55 395.147C2368.14 392.773 2371.57 386.72 2368.85 385.133C2366.11 383.56 2354.35 388.92 2345.83 390.053C2337.3 391.2 2325.98 387.773 2316.83 383.733C2307.7 379.693 2306.03 377.587 2306.03 377.587C2306.03 377.587 2314.29 379.427 2322.81 377.587C2331.33 375.733 2335.81 368.187 2341.87 365.987C2347.94 363.787 2347.85 362.213 2350.74 361.333C2353.65 360.453 2364.01 351.493 2364.01 351.493C2364.01 351.493 2346.97 360.627 2333.53 358.173C2320.09 355.707 2315.97 357.12 2311.39 353.867C2306.82 350.613 2300.5 347.36 2297.07 344.813C2293.65 342.267 2289.07 337.44 2284.61 331.027C2280.13 324.613 2276.61 316.973 2277.22 314.867C2277.83 312.76 2279.59 315.56 2282.49 316.267C2285.39 316.973 2289.34 313.453 2292.69 314.16C2296.02 314.867 2299.35 319.6 2303.83 320.04C2308.31 320.48 2313.94 317.24 2317.54 318.72C2321.14 320.213 2332.13 321.36 2343.27 318.813C2335.55 313.813 2330.71 314.333 2330.71 314.333C2330.71 314.333 2347.94 308.707 2353.91 302.653C2345.03 302.387 2333.01 307.573 2326.41 307.133C2319.82 306.693 2303.31 297.293 2303.31 297.293C2303.31 297.293 2318.42 291.853 2321.67 286.493C2324.91 281.133 2332.65 265.933 2326.59 262.947C2320.53 259.96 2310.78 270.507 2300.59 266.64C2290.39 262.773 2276.7 253.147 2274.46 251.707C2272.22 250.253 2273.66 246.693 2279.99 244.853C2286.31 243 2289.47 240.64 2291.71 237.867C2293.95 235.107 2291.38 231.68 2291.78 228.253C2292.18 224.827 2292.83 220.28 2291.19 219.747C2289.54 219.227 2281.5 219.813 2278.67 218.307C2275.83 216.787 2269.25 214.747 2268.79 213.76C2268.33 212.76 2269.51 211.187 2270.23 209.28C2270.97 207.36 2269.71 198.08 2269.71 198.08C2269.71 198.08 2277.35 202.627 2280.38 203.08C2283.42 203.547 2291.06 198.533 2291.06 198.533L2279.33 193.333C2279.33 193.333 2294.63 186.68 2293.69 181.013C2293.43 179.427 2287.7 182.4 2282.49 178.507C2277.29 174.627 2270.97 172.373 2270.83 167.24C2270.7 162.107 2266.69 161.053 2267.61 154C2268.53 146.947 2265.69 146.627 2265.75 142.147C2265.82 137.667 2264.45 133.907 2263.71 131C2262.99 128.107 2262.82 105 2262.82 105C2261.58 111.16 2257.37 123.107 2257.19 129.253C2257.02 135.4 2259.13 139.787 2257.19 144.533C2255.26 149.28 2250.61 155.16 2250.95 158.507C2251.31 161.84 2247.53 164.293 2247.09 167.373C2246.65 170.453 2244.54 174.133 2239.27 177.653C2234.01 181.16 2228.91 180.987 2228.65 182.573C2228.38 184.147 2229.26 185.64 2235.75 188.547C2226.27 192.76 2215.38 193.907 2215.38 193.907C2215.38 193.907 2225.39 196.187 2230.05 195.747C2234.7 195.307 2246.57 194.867 2250.78 191.8C2252.01 190.92 2253.5 191.613 2252.37 193.987C2251.22 196.36 2244.19 203.56 2237.43 206.467C2230.66 209.36 2229.7 213.053 2230.41 215.333C2231.1 217.613 2234.7 218.68 2237.78 217.533C2240.86 216.387 2242.53 216.04 2244.02 216.387C2245.51 216.747 2248.33 216.827 2250.34 215.253C2251.31 218.68 2251.93 223.773 2246.57 226.667C2241.21 229.56 2232.95 230.44 2230.14 232.373C2227.33 234.307 2197.99 233.347 2194.3 231.76C2201.06 238.707 2211.25 239.32 2211.25 239.32C2211.25 239.32 2207.57 243.88 2200.71 246.427C2193.86 248.973 2183.49 245.373 2181.03 247.227C2178.57 249.067 2183.06 255.387 2186.47 258.293C2189.9 261.187 2195.43 260.747 2197.02 261.987C2198.61 263.213 2205.27 264.347 2205.27 264.347C2205.27 264.347 2200.45 269.36 2193.33 270.587C2186.22 271.813 2184.81 275.947 2185.25 277.533C2185.69 279.107 2191.14 282.093 2195.26 282.707C2199.39 283.32 2203.78 281.04 2208.26 281.92C2212.74 282.8 2220.21 281.92 2221.57 280.52C2222.94 279.107 2225.13 275.6 2226.79 275.947C2228.47 276.293 2232.69 283.853 2226.71 291.147C2220.74 298.44 2195.26 319.16 2151.61 312.84C2158.37 320.747 2178.93 321.28 2178.93 321.28C2178.93 321.28 2167.33 325.093 2163.11 328.12C2175.23 332.733 2183.93 327.6 2188.81 328.653C2193.69 329.707 2200.54 328.653 2204.75 330.627C2208.97 332.6 2215.69 333.133 2218.33 330.627C2220.95 328.12 2226.23 330.627 2230.31 330.893C2234.39 331.16 2240.19 325.493 2240.19 325.493C2240.19 325.493 2236.51 335.107 2228.73 344.2C2220.95 353.293 2193.69 363.173 2171.02 363.307C2148.35 363.44 2141.37 361.6 2140.85 364.493C2140.31 367.387 2147.43 373.32 2151.91 376.213C2156.39 379.12 2177.07 379.907 2181.57 380.707C2186.05 381.493 2182.87 385.187 2174.45 386.493C2166.01 387.813 2162.46 387.813 2161.66 389.653C2160.87 391.507 2169.57 397.173 2175.1 397.04C2180.63 396.907 2181.95 394.267 2186.3 395.067C2190.65 395.853 2193.69 392.427 2196.71 392.427C2199.74 392.427 2201.59 395.2 2205.27 392.293C2208.97 389.4 2214.5 390.053 2215.42 391.907C2216.35 393.747 2223.46 394.4 2229.53 391.773C2223.19 398.227 2217.14 409.947 2204.35 416.147C2191.58 422.333 2180.38 420.093 2175.1 424.84C2169.83 429.587 2168.38 430.507 2168.38 432.747C2168.38 434.987 2177.34 436.173 2184.73 435.907C2192.1 435.64 2210.15 434.067 2221.09 423.267C2212.91 432.48 2209.37 440 2209.37 440C2209.37 440 2225.57 432.48 2232.82 425.493C2240.06 418.52 2243.62 414.693 2244.94 415.48C2246.26 416.28 2247.31 420.893 2255.35 418.653C2250.61 426.68 2248.23 434.067 2238.74 440C2229.26 445.92 2221.89 455.147 2214.5 459.493C2207.13 463.84 2194.21 473.067 2176.82 473.2C2159.42 473.333 2153.23 473.987 2147.97 473.2C2142.69 472.413 2137.69 474.653 2137.55 476.76C2137.42 478.867 2140.18 480.187 2147.17 485.587C2154.15 490.987 2162.58 489.013 2162.58 489.013C2162.58 489.013 2152.18 496.787 2141.9 497.973C2131.62 499.16 2124.25 499.427 2119.37 500.6C2114.49 501.787 2098.55 498.893 2098.55 498.893C2098.55 498.893 2104.74 509.04 2117.13 512.733C2129.51 516.413 2150.21 515.76 2167.73 507.987C2155.99 517.867 2133.86 528.933 2133.86 528.933C2133.86 528.933 2142.42 534.867 2152.83 531.307C2163.25 527.747 2165.22 523.4 2168.65 523.8C2172.07 524.187 2175.5 525.373 2181.57 521.947C2187.62 518.52 2192.37 519.453 2195.26 517.733C2198.17 516.027 2202.65 511.28 2202.65 511.28C2202.65 511.28 2201.06 519.053 2196.18 524.453C2191.31 529.853 2191.31 533.813 2191.31 533.813C2191.31 533.813 2199.35 529.853 2207.13 526.96C2214.9 524.053 2240.86 503.373 2240.86 503.373C2240.86 503.373 2233.74 522.747 2212.53 534.867C2191.31 546.987 2165.75 564.12 2156.79 569.787C2147.83 575.453 2138.87 591.267 2138.87 591.267C2138.87 591.267 2191.18 568.867 2207.26 558.053C2176.95 579.8 2156.13 600.213 2135.7 604.44C2115.29 608.653 2109.62 610.76 2103.42 609.307C2097.23 607.867 2095.13 607.067 2094.07 610.893C2093.02 614.72 2103.82 622.747 2106.71 625.787C2109.62 628.813 2126.87 624.867 2126.87 624.867C2126.87 624.867 2121.34 631.707 2122.14 635C2122.93 638.307 2135.83 641.2 2151.91 635C2167.99 628.813 2173.79 622.627 2176.02 623.013C2178.26 623.413 2177.07 630.4 2185.78 630.133C2194.47 629.867 2206.73 618.667 2208.97 618.8C2211.21 618.933 2213.98 617.48 2213.98 617.48C2213.98 617.48 2169.87 671.947 2154.06 684.947C2138.25 697.947 2115.06 722.187 2115.06 722.187C2105.75 722.187 2095.21 722.547 2095.38 725.88C2095.57 729.213 3378.59 725.88 3378.59 725.88C3378.59 725.88 3384.57 714.107 3376.14 701.107Z" fill="black"/>
<path d="M2115.67 491.773C2112.16 493.173 2092.48 496.16 2088.09 504.773C2083.7 513.387 2107.94 521.467 2107.94 521.467C2103.9 527.44 2101.79 537.8 2101.79 537.8L2076.49 517.947H2081.94L2058.4 495.813L2072.1 500.56L2054.36 479.48C2054.36 479.48 2075.97 479.12 2082.29 483.694C2088.62 488.267 2083.34 470.347 2078.78 466.653C2091.95 469.987 2109 466.653 2109 466.653C2109 466.653 2098.98 474.907 2092.66 479.827C2086.33 484.747 2088.79 488.96 2104.78 486.853C2120.77 484.747 2123.58 483.694 2123.58 483.694C2123.58 483.694 2119.18 490.374 2115.67 491.773ZM1930.67 460.76L1912.49 453.387C1912.49 453.387 1940.42 452.854 1948.86 448.64C1944.38 453.92 1930.67 460.76 1930.67 460.76ZM1926.46 486.587L1912.49 479.48H1935.68L1926.46 486.587ZM1912.49 512.414L1903 502.934H1918.82L1912.49 512.414ZM1718 502.134L1714.84 493.707L1722.75 485.013L1733.03 495.547L1718 502.134ZM1375.94 595.694C1375.94 595.694 1364.35 591.214 1356.18 580.147C1370.67 585.68 1392.28 582.773 1392.28 582.773L1375.94 595.694ZM1344.06 522.694L1358.82 523.747L1352.23 530.867L1344.06 522.694ZM1318.5 546.147C1312.7 540.347 1311.64 533.76 1311.64 533.76L1329.56 543.253C1329.56 543.253 1323.5 544.574 1318.5 546.147ZM2304.56 689.96C2303 677.107 2291.32 712.16 2224.31 660.734C2260.74 668.427 2276.51 656.453 2285.87 649.734C2265.71 655.28 2259.27 647.4 2259.27 647.4C2259.27 647.4 2298.72 633.667 2295.51 622.267C2292.3 610.88 2290.83 636 2247.59 622.267C2204.35 608.534 2202.6 584 2202.6 584C2202.6 584 2209.61 581.947 2210.19 576.4C2228.75 585.014 2252.12 579.907 2260.3 574.347C2239.99 575.667 2229.62 566.907 2229.62 566.907C2229.62 566.907 2241.31 559.014 2245.98 549.96C2237.07 554.774 2207.37 546.013 2185.75 510.947C2210.29 509.787 2219.83 498.88 2209.32 491.467C2222.56 493.227 2237.36 482.907 2236 479.587C2223.14 483.293 2206 481.347 2201.72 476.08C2197.43 470.827 2187.11 457.974 2187.11 457.974C2187.11 457.974 2195.68 461.28 2200.84 459.134C2206 457 2206.3 453.88 2209.71 454.947C2213.11 456.027 2215.45 453.88 2213.21 449.88C2210.97 445.893 2209.51 443.853 2204.15 441.613C2198.8 439.374 2191.4 433.627 2188.57 421.453C2185.75 409.28 2181.46 409.467 2181.46 409.467C2181.46 409.467 2182.29 350.107 2169.29 348.8C2156.29 347.48 2164.47 381.227 2153.07 394.374C2141.68 407.52 2140.07 410.734 2128.97 411.174C2117.86 411.614 2121.52 423.587 2131.89 425.64C2126.41 428.707 2112.02 426.227 2112.02 426.227C2112.02 426.227 2116.92 430.827 2122.61 432.574C2128.31 434.334 2137.95 433.96 2137.95 433.96C2137.95 433.96 2136.05 443.827 2143.5 446.667C2142.63 451.494 2122.32 460.04 2122.32 460.04C2122.32 460.04 2135.83 450.32 2131.09 446.16C2126.34 442 2122.98 446.094 2116.55 447.334C2110.12 448.574 2108.61 448.04 2096.34 445.694C2084.07 443.36 2078.35 440.68 2067.54 433.747C2056.73 426.8 2046.28 413.653 2046.28 413.653L2056.44 413.8L2049.28 406.347C2049.28 406.347 2067.17 407.373 2077.98 405.92C2088.79 404.453 2095.66 399.92 2093.91 394.667C2092.15 389.4 2087.92 389.547 2082.07 388.24C2076.23 386.92 2074.33 382.88 2068.2 380.547C2062.06 378.2 2058.07 380.934 2053.49 375.96C2048.91 371 2026.9 359.8 2020.77 348.213C2033.33 351.32 2046.28 344.413 2045.6 339.547C2044.92 334.667 2040.54 338.467 2035.47 337.987C2030.41 337.493 2028.75 331.16 2028.75 331.16C2028.75 331.16 2037.91 334.187 2046.58 331.56C2055.24 328.92 2057.29 319.96 2056.51 318.307C2055.73 316.654 2052.81 317.147 2046.87 317.72C2040.93 318.307 2033.52 315.48 2032.55 309.84C2031.58 304.187 2025.64 296.88 2019.89 294.934C2025.64 293.187 2025.83 288.213 2025.83 288.213C2025.83 288.213 2029.73 293.96 2036.74 292.4C2043.75 290.84 2041.8 281.693 2037.71 278.187C2033.62 274.68 2029.53 271.173 2026.61 260.653C2023.69 250.133 2019.01 245.854 2019.01 238.64C2019.01 231.44 2012.78 202.614 2006.35 203.2C1999.92 203.774 2002.07 215.467 2001.87 218.387C2001.68 221.307 1997.2 227.733 1996.81 237.08C1996.42 246.44 1981.81 269.027 1978.5 275.653C1975.19 282.28 1955.51 279.747 1954.35 293.374C1953.18 307.014 1970.71 293.773 1970.71 299.413C1970.71 305.067 1961.36 310.134 1950.26 312.267C1939.15 314.414 1944.61 316.56 1935.84 319.094C1927.08 321.627 1923.18 330 1922.99 333.694C1914.32 332.334 1909.74 328.92 1909.74 328.92C1909.74 328.92 1910.52 331.854 1912.47 333.894C1905.75 334.574 1904.48 332.72 1904.48 332.72C1904.48 332.72 1906.82 339.933 1919.38 340.52C1931.94 341.107 1935.94 345.774 1945.87 344.707C1938.08 348.214 1933.7 354.733 1927.76 355.32C1921.82 355.907 1907.69 357.653 1900.68 365.053C1893.67 372.453 1891.24 367.987 1891.33 373.534C1891.43 379.08 1895.03 376.36 1898.05 377.52C1901.07 378.693 1907.69 382.107 1916.75 382.494C1925.81 382.88 1929.22 380.16 1929.22 380.16C1929.22 380.16 1928.93 388.427 1933.99 390.28C1931.56 396.907 1928.15 397.68 1924.06 397.88C1919.97 398.08 1916.56 400.413 1916.75 404.013C1916.95 407.613 1920.16 409.76 1927.08 409.76C1933.99 409.76 1946.75 407.227 1946.75 407.227C1946.75 407.227 1929.56 432.36 1898.15 441.853L1893.62 439.947C1893.62 439.947 1897.86 436.013 1897.71 431.92C1912.18 430.747 1921.52 424.907 1920.06 419.787C1918.6 414.68 1907.65 422.72 1890.41 405.187C1873.17 387.653 1870.54 380.787 1868.64 376.547C1866.74 372.32 1862.5 370.853 1862.5 370.853C1862.5 370.853 1871.27 369.827 1877.99 368.08C1884.71 366.32 1886.02 361.214 1883.54 358.147C1881.06 355.08 1879.16 355.374 1876.53 355.374C1873.9 355.374 1870.47 351.72 1867.11 351.427C1863.75 351.134 1862.5 348.947 1862.58 346.013C1862.65 343.093 1860.39 341.414 1859.58 341.494C1858.78 341.56 1862.21 335.72 1858.93 333.387C1855.64 331.04 1855.42 330.747 1855.49 329.587C1855.57 328.413 1860.1 325.2 1859.07 321.694C1858.05 318.187 1860.24 318.333 1859.58 314.68C1858.93 311.027 1858.27 309.787 1858.49 305.334C1858.71 300.88 1856.3 299.12 1856.44 295.253C1856.59 291.387 1857.68 275.747 1853.89 275.24C1850.09 274.734 1848.63 280.2 1848.41 285.76C1848.19 291.307 1843.3 303.147 1841.1 307.16C1838.91 311.174 1838.11 315.707 1838.62 317.894C1839.13 320.094 1835.7 323.16 1836.06 325.934C1836.43 328.707 1838.18 329.147 1838.18 332.067C1838.18 334.987 1832.7 339.52 1827.08 340.547C1821.46 341.56 1818.61 339.373 1816.34 341.787C1814.08 344.187 1815.54 349.227 1820.14 351.347C1824.74 353.467 1827.59 355.8 1831.24 355.227C1820.72 363.92 1809.77 367.414 1804.44 364.934C1799.1 362.454 1800.42 365.454 1796.4 364.574C1792.38 363.694 1785.22 361.867 1785.22 361.867C1785.22 361.867 1794.87 372.894 1803.05 375.094C1797.42 378.52 1783.33 378.96 1783.33 378.96C1783.33 378.96 1793.48 381.733 1796.33 384.08C1799.18 386.413 1822.92 384.147 1822.92 384.147C1822.92 384.147 1819.85 388.627 1812.93 392.427C1806.02 396.227 1799.79 399.44 1794.82 401.574C1789.85 403.72 1782.16 405.48 1774.95 407.813C1767.74 410.147 1765.7 405.867 1763.17 405.48C1760.63 405.08 1759.66 406.84 1757.22 405.187C1754.79 403.533 1745.83 404.013 1741.35 401.387C1744.56 411.8 1762.1 425.44 1775.92 427.974C1789.75 430.507 1797.94 427.88 1797.94 427.88C1797.94 427.88 1804.07 434.014 1810.99 433.627C1793.41 449.307 1784.06 454.707 1767.84 456.453C1773.1 447.547 1775.58 444.333 1774.85 443.013C1774.12 441.707 1748.56 454.56 1737.75 454.707C1726.94 454.854 1714.23 454.12 1701.08 448.867C1687.93 443.6 1666.02 439.374 1660.76 430.747C1686.32 439.667 1700.64 432.947 1711.16 432.947C1721.68 432.947 1734.39 424.907 1734.39 424.907C1734.39 424.907 1721.82 423.013 1712.04 423.587C1705.17 411.32 1689.25 408.547 1672.88 400.507C1705.9 414.387 1722.12 404.16 1722.12 404.16C1722.12 404.16 1707.07 395.987 1704 386.04C1720.36 386.48 1742.13 366.173 1742.13 366.173C1742.13 366.173 1685.16 357.653 1654.77 330.387C1679.6 331.56 1710.28 321.92 1710.28 305.84C1710.28 289.773 1709.11 303.507 1683.99 300C1658.86 296.494 1649.51 291.24 1649.51 291.24C1649.51 291.24 1672.59 290.653 1664.7 276.92C1692.75 283.64 1708.82 279.84 1724.31 265.813C1692.46 269.32 1674.93 259.974 1674.93 259.974C1674.93 259.974 1693.92 259.68 1701.81 248.867C1688.95 246.827 1680.77 245.654 1662.66 244.2C1644.54 242.734 1643.38 237.773 1643.38 237.773C1643.38 237.773 1662.56 231.44 1661.59 223.84C1660.61 216.24 1648.34 223.04 1629.64 203.187C1645.81 212.733 1654.19 207.28 1654.19 207.28C1654.19 207.28 1643.86 196.96 1638.6 189.947C1633.34 182.933 1627.69 177.48 1625.75 168.72C1623.8 159.947 1627.89 155.867 1623.99 151.387C1620.1 146.907 1624.19 136 1618.74 136C1613.28 136 1616.79 141.053 1613.28 149.44C1609.78 157.813 1606.85 161.894 1607.05 170.667C1607.24 179.427 1585.23 205.534 1577.83 226.374C1590.1 222.28 1597.5 212.347 1597.5 212.347C1597.5 212.347 1590.59 229.494 1587.67 235.627C1584.75 241.76 1579.49 244.2 1576.47 250.04C1573.45 255.88 1570.72 255.294 1565.36 257.64C1560.01 259.974 1559.13 262.413 1558.94 264.947C1558.74 267.467 1560.4 271.174 1567.6 271.667C1556.4 277.4 1538.68 285.294 1532.74 288.6C1526.8 291.92 1530.89 296.693 1536.24 298.147C1541.6 299.613 1549.88 301.853 1559.72 299.52C1569.55 297.173 1574.81 294.067 1574.81 294.067C1574.81 294.067 1571.5 298.053 1569.65 303.213C1567.8 308.373 1518.71 332.133 1498.85 334.387C1515.01 341.387 1567.22 332.334 1580.95 322.6C1562.15 354.934 1543.74 357.56 1529.14 363.107C1514.53 368.667 1504.59 365.734 1501.38 369.827C1498.16 373.92 1497.29 393.493 1542.58 393.787C1535.86 404.307 1521.83 401.094 1518.03 406.934C1514.23 412.787 1517.16 422.133 1530.01 423.587C1542.87 425.053 1537.02 431.48 1537.02 431.48C1532.88 437.84 1528.66 445.347 1525.23 446.8C1521.81 448.254 1513.77 442.32 1508.9 441C1504.02 439.68 1493.48 438.494 1487.94 430.067C1499.54 430.334 1509.82 424.133 1507.97 419.253C1506.13 414.387 1493.48 414.52 1486.36 408.187C1479.25 401.867 1472.26 398.173 1468.31 389.747C1477.54 392.507 1488.08 384.347 1485.05 379.6C1482.02 374.854 1472.53 378.147 1460.8 366.56C1475.3 369.32 1484.26 360.093 1482.54 356.28C1480.83 352.453 1461.2 354.427 1451.31 336.773C1458.52 339.36 1469.67 337.693 1469.76 335.147C1469.85 332.6 1460.36 331.107 1453.77 319.507C1447.18 307.92 1450.61 300.8 1445.6 295.613C1444.37 292.453 1443.94 254.427 1442.27 254.507C1440.6 254.6 1437 273.04 1437.35 278.76C1437.7 284.467 1439.1 289.56 1436.64 294.213C1434.18 298.867 1434.18 302.907 1434.27 306.694C1434.36 310.467 1430.32 312.573 1429.62 315.387C1428.91 318.2 1420.3 320.133 1420.48 322.147C1420.66 324.173 1426.45 325.4 1428.21 326.453C1429.97 327.507 1416.26 335.68 1407.57 336.374C1398.87 337.08 1401.42 339.8 1398.7 339.627C1395.97 339.454 1395.27 338.053 1394.83 338.747C1394.39 339.453 1394.22 344.72 1399.49 344.467C1404.76 344.2 1404.93 348.32 1409.15 348.76C1413.36 349.2 1417.76 348.68 1417.76 348.68C1417.76 348.68 1414.33 354.12 1411.08 355C1407.83 355.88 1402.3 355.173 1401.42 357.813C1400.54 360.453 1404.67 364.32 1409.94 364.494C1415.21 364.667 1419.6 363 1419.6 363C1419.6 363 1410.47 371.254 1403.53 371.867C1396.59 372.48 1386.31 372.134 1384.46 374.334C1382.62 376.52 1384.03 379.68 1392.28 382.053C1400.54 384.427 1400.8 387.334 1400.8 387.334C1400.8 387.334 1392.2 388.12 1391.58 389.787C1390.97 391.453 1392.9 395.413 1400.54 395.587C1408.18 395.76 1411.61 393.387 1411.61 393.387C1411.61 393.387 1402.3 399.36 1396.76 403.494C1391.23 407.614 1379.72 406.92 1376.56 409.467C1373.4 412.014 1367.25 411.307 1364.35 411.574C1361.45 411.84 1357.06 415.787 1363.03 420.36C1369 424.92 1383.15 425.36 1383.15 425.36C1383.15 425.36 1375.42 434.147 1384.9 437.4C1383.24 444.16 1364 452.427 1361.54 452.853C1359.08 453.293 1353.81 452.68 1351 454.44C1348.19 456.2 1346.96 462 1355.3 464.627C1363.65 467.267 1369.27 475 1381.04 473.853C1375.77 478.507 1356.88 486.507 1356.88 486.507C1356.88 486.507 1338.08 475.254 1329.3 462.44C1320.52 449.614 1311.91 437.84 1306.81 432.92C1326.84 438.187 1341.77 438.013 1351.44 436.613C1361.1 435.2 1367.07 433.2 1367.07 431.48C1367.07 429.76 1346.69 426.6 1343.71 425.187C1351.35 420.973 1350.12 415.613 1350.12 415.613C1350.12 415.613 1335.36 419.654 1320.08 405.427C1304.79 391.2 1286.48 369.72 1280.28 350.48C1300.18 372.48 1321.52 382.894 1331.28 386.84C1341.03 390.8 1361.87 393.907 1375.02 387.24C1351.17 379.2 1335.89 366.427 1335.89 366.427C1335.89 366.427 1358.68 357.067 1354.73 340.734C1338.92 340.6 1320.21 334.533 1309.14 325.053C1298.07 315.56 1296.49 316.094 1296.49 316.094C1296.49 316.094 1315.99 303.84 1310.46 291.187C1309.27 288.68 1297.5 291.32 1288.72 285.694C1279.93 280.067 1278.26 280.427 1274.49 275.68C1282.3 277.44 1296.01 273.654 1294.16 266.107C1292.32 258.547 1281.34 257.667 1276.07 249.68C1278.09 246.52 1278.18 244.227 1276.86 242.294C1281.16 240.374 1283.27 233.16 1282.57 228.853C1281.86 224.56 1276.51 214.187 1271.06 207.694C1265.61 201.187 1263.86 164.387 1261.31 164.56C1258.76 164.734 1261.31 173.427 1258.59 178.173C1255.86 182.92 1255.07 189.587 1254.54 195.653C1254.02 201.72 1252.17 208.574 1248.75 212.427C1245.32 216.294 1241.46 219.64 1240.93 222.534C1240.4 225.44 1232.06 226.4 1231.97 229.734C1231.88 233.08 1233.9 237.2 1235.75 238.96C1237.59 240.72 1241.9 240.8 1241.9 240.8C1241.9 240.8 1236.71 248.36 1227.84 252.227C1218.97 256.094 1215.19 260.4 1214.84 263.12C1214.49 265.84 1217.12 269.44 1222.31 270.494C1227.49 271.547 1227.93 274.454 1231.88 274.8C1235.83 275.147 1235.92 270.76 1238.82 270.76C1241.72 270.76 1243.83 271.027 1243.92 271.987C1244 272.96 1235.22 276.467 1234.08 280.6C1232.94 284.734 1225.82 285.694 1221.34 287.094C1216.86 288.507 1210.45 287.454 1209.22 289.827C1207.99 292.2 1198.15 297.733 1197.89 300.72C1197.62 303.707 1207.55 303.613 1209.92 305.987C1212.29 308.36 1226.7 312.4 1229.16 312.48C1231.62 312.573 1231.62 313.28 1231.62 313.72C1231.62 314.16 1224.15 312.307 1220.37 316.613C1216.6 320.92 1217.12 324.613 1209.74 323.374C1202.37 322.147 1200.78 329.613 1189.63 331.107C1178.47 332.6 1133.36 328.347 1120.72 311.48C1126.64 323.733 1135.08 331.24 1137.05 336.253C1139.03 341.253 1147.33 339.933 1152.87 344.413C1158.4 348.893 1168.28 358.654 1172.76 357.334C1169.6 360.76 1148.12 364.974 1137.19 359.44C1142.33 366.814 1156.03 369.187 1159.72 371.827C1163.41 374.454 1177.11 376.96 1183.83 374.853C1190.55 372.747 1203.73 372.613 1203.73 372.613C1203.73 372.613 1205.31 374.987 1208.87 374.2C1207.42 377.494 1195.82 382.627 1189.1 389.213C1182.38 395.8 1141.27 416.36 1128.36 414.907C1132.05 421.107 1146.15 427.56 1156.95 428.48C1167.76 429.4 1185.68 427.694 1185.68 427.694C1185.68 427.694 1186.07 435.867 1172.1 439.16C1183.04 445.747 1207.68 443.24 1207.68 443.24C1207.68 443.24 1199.51 445.347 1189.1 457.213C1178.69 469.067 1154.05 471.04 1148.39 476.84C1142.72 482.64 1125.33 489.227 1119 489.227C1112.68 489.227 1094.76 492.12 1090.8 489.627C1086.85 487.12 1080.13 492 1090.28 503.32C1100.42 514.653 1105.17 516.24 1115.05 516.24C1124.93 516.24 1147.86 514.92 1147.86 514.92C1147.86 514.92 1116.37 533.494 1115.44 536.267C1114.52 539.04 1117.69 546.28 1130.6 545.36C1143.51 544.44 1170.92 537.454 1180.01 528.627C1179.09 536.267 1183.96 538.24 1187.52 538.374C1191.08 538.507 1201.49 534.947 1212.29 524.8C1206.76 534.16 1183.48 562.574 1161.52 574.174C1139.56 585.76 1115.31 588.4 1113.56 593.667C1111.8 598.947 1112.68 606.854 1129.19 607.907C1145.71 608.96 1157.48 609.84 1157.48 609.84C1157.48 609.84 1130.07 639.88 1112.33 650.067C1094.58 660.254 1074.2 662.187 1067.88 660.613C1061.55 659.027 1059.09 666.934 1066.82 671.32C1074.55 675.72 1080 676.427 1082.46 678.174C1084.92 679.934 1096.34 678 1103.72 680.28C1111.1 682.573 1136.04 675.013 1136.04 675.013C1136.04 675.013 1133.58 679.227 1137.1 682.747C1122.34 691.707 1120.58 703.294 1113.91 706.107C1107.23 708.92 1078.37 717.774 1071.98 726.96H2259.38C2259.38 726.96 2306.12 702.814 2304.56 689.96Z" fill="black"/>
<rect y="727" width="3381" height="500" fill="black"/>
</svg>
